<svg width="173" height="44" viewBox="0 0 173 44" fill="none" xmlns="http://www.w3.org/2000/svg">
<g clip-path="url(#clip0_2_5651)">
<path d="M1.94692 8.79978C1.94692 8.16696 1.91457 7.66395 1.84448 7.29074C1.77438 6.91754 1.67733 6.62547 1.54792 6.41453C1.41851 6.20359 1.26215 6.06296 1.07343 5.99265C0.884712 5.92234 0.663643 5.88988 0.410223 5.88988C0.17837 5.88988 0.0435715 5.76548 0.00582804 5.52209C-0.0319155 5.2787 0.119059 5.1543 0.442574 5.1543H9.12897C10.4608 5.1543 11.5661 5.36524 12.4558 5.78712C13.3455 6.209 14.0194 6.73905 14.4885 7.38269C14.9576 8.02633 15.2218 8.72406 15.2919 9.47046C15.362 10.2223 15.238 10.9308 14.9253 11.5961C14.6072 12.2614 14.1111 12.8401 13.4371 13.3161C12.7577 13.7974 11.9058 14.0733 10.8813 14.1436C12.1646 14.2139 13.2214 14.5493 14.0518 15.1442C14.8822 15.7392 15.4753 16.4802 15.8365 17.3564C16.1978 18.2326 16.338 19.1737 16.2571 20.1689C16.1762 21.1641 15.8527 22.0836 15.2919 22.9274C14.7312 23.7711 13.944 24.4743 12.9303 25.0368C11.9166 25.5993 10.6603 25.8805 9.16671 25.8805H0.442574C0.113667 25.8805 -0.0319155 25.7561 0.00582804 25.5127C0.0435715 25.2694 0.172978 25.145 0.410223 25.145C0.669035 25.145 0.890104 25.1179 1.07343 25.0584C1.26215 24.9989 1.41851 24.8691 1.54792 24.6744C1.67733 24.4743 1.77438 24.1876 1.84448 23.8144C1.91457 23.4412 1.94692 22.9382 1.94692 22.3054V8.79978ZM7.83491 13.8948C8.53586 13.8948 9.12358 13.6947 9.60346 13.2998C10.0833 12.8996 10.45 12.4128 10.7088 11.8233C10.9676 11.2391 11.097 10.5955 11.1132 9.89234C11.124 9.18921 11.0161 8.54557 10.7789 7.96143C10.547 7.37728 10.1858 6.88509 9.69512 6.48484C9.20446 6.0846 8.58438 5.88988 7.8403 5.88988H6.15802V13.9002H7.83491V13.8948ZM6.15263 25.172H7.69472C8.69761 25.172 9.52797 24.9124 10.1804 24.3986C10.8328 23.8847 11.3181 23.2357 11.6362 22.4514C11.9489 21.6671 12.1053 20.818 12.0891 19.9039C12.0784 18.9898 11.9004 18.1407 11.5661 17.3564C11.2264 16.5721 10.7358 15.9231 10.0941 15.4092C9.45248 14.8954 8.65448 14.6358 7.69472 14.6358H6.15263V25.172Z" fill="white"/>
<path d="M23.3092 22.3266C23.3092 23.4299 23.4386 24.1763 23.692 24.5766C23.9508 24.9768 24.3337 25.1716 24.8459 25.1716C25.0777 25.1716 25.1964 25.2905 25.1964 25.5231C25.1964 25.7557 25.067 25.8747 24.8135 25.8747H17.6045C17.3457 25.8747 17.2217 25.7557 17.2217 25.5231C17.2217 25.2905 17.3403 25.1716 17.5722 25.1716C17.831 25.1716 18.0521 25.1337 18.2354 25.0472C18.4241 24.966 18.5805 24.82 18.7099 24.609C18.8393 24.3981 18.9363 24.1114 19.0064 23.7491C19.0765 23.3867 19.1089 22.9107 19.1089 22.3266V16.3553C19.1089 15.2087 18.9795 14.4569 18.7261 14.1053C18.4672 13.7537 18.0844 13.5806 17.5722 13.5806C17.3403 13.5806 17.2055 13.4725 17.1678 13.2615C17.13 13.0506 17.281 12.91 17.6045 12.8397L22.4734 11.8553C22.8724 11.7633 23.1097 11.7363 23.1906 11.785C23.2714 11.8336 23.3146 12.077 23.3146 12.5205V22.3266H23.3092ZM18.7584 7.14967C18.7584 6.39786 18.9795 5.82994 19.4216 5.44592C19.8638 5.0619 20.4029 4.86719 21.0338 4.86719C21.6647 4.86719 22.1985 5.08895 22.646 5.53246C23.0881 5.97598 23.3092 6.51685 23.3092 7.14967C23.3092 7.78249 23.0881 8.32336 22.646 8.76688C22.2038 9.2104 21.6647 9.43215 21.0338 9.43215C20.4029 9.43215 19.8638 9.2104 19.4216 8.76688C18.9795 8.32336 18.7584 7.78249 18.7584 7.14967Z" fill="white"/>
<path d="M45.2657 9.43215C44.2358 9.43215 43.33 9.67014 42.532 10.1515C41.7393 10.6329 41.0438 11.2279 40.4507 11.9418C39.8576 12.6558 39.3507 13.4238 38.9463 14.2405C38.5365 15.0626 38.2184 15.7982 37.9812 16.4527L33.3225 29.558C33.2309 29.8176 33.0799 30.1314 32.8696 30.5046C32.6593 30.8778 32.3844 31.2456 32.0447 31.6133C31.705 31.9757 31.3221 32.284 30.8908 32.5436C30.4594 32.8033 29.9742 32.9277 29.435 32.9277C28.9443 32.9277 28.5399 32.7654 28.2272 32.4355C27.9144 32.1055 27.7311 31.7486 27.6826 31.3645C27.6341 30.9805 27.7473 30.6127 28.0169 30.2774C28.2865 29.9366 28.7556 29.7419 29.435 29.6987C29.6237 29.6987 29.8771 29.6824 30.206 29.6446C30.5349 29.6067 30.8854 29.5093 31.2574 29.3471C31.6295 29.1848 31.9907 28.936 32.3412 28.6115C32.6917 28.2816 32.9829 27.8272 33.2147 27.2431L33.9157 25.4528L33.0044 25.8368C32.5839 26.0261 32.2442 25.9774 31.9907 25.6962C31.7319 25.4149 31.5378 25.1012 31.3976 24.7497L28.912 17.9347C28.5399 16.9286 28.2218 16.0903 27.9684 15.425C27.7096 14.7598 27.4723 14.2297 27.2512 13.8457C27.0302 13.4617 26.8145 13.1858 26.6042 13.0181C26.3939 12.8559 26.1621 12.7747 25.9033 12.7747C25.6714 12.7747 25.5528 12.6503 25.5528 12.407C25.5528 12.1636 25.6822 12.0392 25.9356 12.0392H32.7618C33.0206 12.0392 33.1446 12.1636 33.1446 12.407C33.1446 12.6503 33.026 12.7747 32.7941 12.7747C32.5353 12.7747 32.3412 12.8451 32.201 12.9857C32.0608 13.1263 32.0015 13.3913 32.0285 13.7754C32.0501 14.1594 32.1633 14.6894 32.3628 15.3547C32.5623 16.02 32.8696 16.8692 33.2902 17.9022L35.0426 22.1859L37.1454 16.4256C37.3072 15.9551 37.539 15.3439 37.8302 14.5813C38.1214 13.8186 38.4557 13.0127 38.8277 12.1582C39.1997 11.3036 39.6203 10.4436 40.0894 9.57819C40.5585 8.71279 41.06 7.92853 41.5938 7.22539C42.133 6.52226 42.7099 5.95434 43.33 5.52164C43.9446 5.08354 44.5917 4.86719 45.2657 4.86719C46.0367 4.86719 46.6083 5.10517 46.9803 5.58655C47.3523 6.06792 47.5411 6.58716 47.5411 7.14967C47.5411 7.71218 47.3523 8.23142 46.9803 8.71279C46.6083 9.19417 46.0367 9.43215 45.2657 9.43215Z" fill="white"/>
<path d="M40.6816 18.8114C40.6816 17.2915 40.9674 16.0259 41.539 15.0199C42.1105 14.0139 42.8222 13.235 43.6742 12.6833C44.5261 12.1316 45.4481 11.7909 46.4402 11.6665C47.4323 11.5367 48.3544 11.6016 49.2063 11.8612C50.0582 12.1208 50.7699 12.5427 51.3415 13.1268C51.913 13.711 52.1988 14.452 52.1988 15.339C52.1988 15.9015 52.037 16.464 51.7081 17.0265C51.3792 17.589 50.9209 18.1083 50.3278 18.5896C49.7347 19.071 49.0283 19.4929 48.2088 19.8553C47.3892 20.2177 46.5049 20.4827 45.5452 20.645C45.9442 21.8186 46.478 22.6732 47.1573 23.2087C47.8367 23.7496 48.5269 24.0308 49.2386 24.0525C49.9504 24.0741 50.6297 23.8523 51.2714 23.3872C51.913 22.9166 52.3983 22.2622 52.7272 21.4184C52.8458 21.1588 52.9914 21.056 53.164 21.1047C53.3365 21.1534 53.3904 21.3156 53.3203 21.5969C53.0399 22.7435 52.5331 23.6738 51.7944 24.3878C51.0611 25.1017 50.2254 25.5939 49.2925 25.8644C48.3597 26.1348 47.3838 26.1835 46.3701 26.0212C45.3564 25.859 44.429 25.4804 43.5879 24.8962C42.7467 24.3121 42.0512 23.5062 41.5066 22.4893C40.9512 21.4671 40.6816 20.2447 40.6816 18.8114ZM50.1013 15.1226C50.1013 14.5115 49.9719 13.9922 49.7185 13.5595C49.4597 13.1268 49.147 12.8077 48.7749 12.613C48.4029 12.4129 47.9877 12.3317 47.5294 12.3696C47.0765 12.4075 46.6613 12.586 46.2839 12.9159C45.9118 13.2458 45.5937 13.7164 45.3403 14.3384C45.0815 14.9604 44.9574 15.7501 44.9574 16.7074C44.9574 17.9514 45.0868 19.0494 45.3403 20.0121C46.8824 19.6389 48.0578 19.0115 48.8774 18.1353C49.6916 17.2483 50.1013 16.2477 50.1013 15.1226Z" fill="white"/>
<path d="M98.2519 25.1349C98.5107 25.1565 98.7317 25.1024 98.9151 24.9618C99.1038 24.8212 99.2602 24.5562 99.3896 24.1721C99.519 23.7881 99.616 23.2581 99.6861 22.5928C99.7562 21.9275 99.7886 21.0621 99.7886 20.0128V8.87084C99.7886 7.74582 99.6592 7.03187 99.4057 6.72898C99.1469 6.42609 98.7641 6.27465 98.2519 6.27465C98.02 6.27465 97.8852 6.15025 97.8475 5.90686C97.8097 5.66346 97.9607 5.53906 98.2842 5.53906H105.499C105.828 5.53906 105.973 5.66346 105.935 5.90686C105.898 6.15025 105.768 6.27465 105.531 6.27465C105.019 6.27465 104.631 6.44773 104.377 6.7993C104.118 7.15086 103.994 7.854 103.994 8.9087V15.7237L110.545 8.03249C110.847 7.65929 111.042 7.34558 111.122 7.10219C111.203 6.85879 111.214 6.66408 111.16 6.52345C111.101 6.38283 110.993 6.28547 110.826 6.22597C110.664 6.16648 110.475 6.13943 110.265 6.13943C110.055 6.13943 109.952 6.02585 109.952 5.80409C109.952 5.58233 110.071 5.46875 110.303 5.46875H114.611C114.843 5.46875 114.961 5.58233 114.961 5.80409C114.961 6.02585 114.843 6.13943 114.611 6.13943C114.212 6.13943 113.786 6.25302 113.333 6.47477C112.88 6.69653 112.384 7.113 111.845 7.72419L107.575 12.711L112.724 22.4792C113.026 23.0904 113.279 23.5664 113.479 23.9179C113.678 24.2695 113.845 24.5399 113.986 24.7238C114.126 24.9131 114.26 25.0321 114.39 25.0916C114.519 25.1511 114.686 25.1782 114.897 25.1782C115.156 25.1782 115.274 25.2971 115.263 25.5297C115.253 25.7623 115.118 25.8813 114.859 25.8813H107.715C107.456 25.8813 107.337 25.7569 107.348 25.5135C107.359 25.2701 107.494 25.1457 107.752 25.1457C108.173 25.1457 108.41 24.8969 108.47 24.3885C108.529 23.8855 108.356 23.2472 107.963 22.4738L104.738 16.3241L104.005 17.1678V19.9804C104.005 21.9924 104.134 23.3716 104.388 24.1072C104.647 24.8428 105.03 25.189 105.542 25.1457C105.66 25.1457 105.752 25.1836 105.822 25.2539C105.892 25.3242 105.935 25.4053 105.946 25.4973C105.957 25.5892 105.93 25.6812 105.86 25.7623C105.79 25.8434 105.671 25.8867 105.509 25.8867H98.295C98.1332 25.8867 98.0146 25.8488 97.9445 25.7623C97.8744 25.6812 97.8475 25.5946 97.8583 25.4973C97.869 25.4053 97.9122 25.3242 97.9823 25.2539C98.0416 25.1727 98.1332 25.1349 98.2519 25.1349Z" fill="white"/>
<path d="M128.577 18.8123C128.577 20.4295 128.243 21.7763 127.58 22.8526C126.917 23.929 126.086 24.7403 125.094 25.2757C124.102 25.8166 123.029 26.0816 121.87 26.0816C120.71 26.0816 119.637 25.8112 118.645 25.2757C117.653 24.7349 116.823 23.929 116.16 22.8526C115.496 21.7763 115.162 20.4295 115.162 18.8123C115.162 17.1951 115.496 15.8483 116.16 14.772C116.823 13.6956 117.653 12.8843 118.645 12.3489C119.637 11.808 120.71 11.543 121.87 11.543C123.029 11.543 124.097 11.8134 125.094 12.3489C126.086 12.8897 126.917 13.6956 127.58 14.772C128.243 15.8537 128.577 17.2005 128.577 18.8123ZM124.339 18.8123C124.339 16.6813 124.08 15.0749 123.568 13.9985C123.056 12.9222 122.49 12.3813 121.87 12.3813C121.25 12.3813 120.683 12.9168 120.171 13.9769C119.659 15.0424 119.4 16.6542 119.4 18.8069C119.4 20.9866 119.659 22.6146 120.171 23.691C120.683 24.7673 121.25 25.3082 121.87 25.3082C122.49 25.3082 123.056 24.7619 123.568 23.6747C124.086 22.593 124.339 20.9704 124.339 18.8123Z" fill="white"/>
<path d="M142.795 9.4326C142.073 9.4326 141.426 9.59487 140.854 9.9248C140.283 10.2547 139.781 10.682 139.35 11.2067C138.918 11.7313 138.536 12.3263 138.212 12.9807C137.883 13.6352 137.603 14.2734 137.371 14.8954C137.139 15.5174 136.94 16.0962 136.778 16.637C136.616 17.1779 136.465 17.5998 136.325 17.9027V20.7152C136.325 21.7212 136.363 22.5163 136.433 23.1059C136.503 23.69 136.6 24.1389 136.729 24.4418C136.859 24.7447 137.015 24.9394 137.204 25.0206C137.393 25.1017 137.614 25.145 137.867 25.145C138.099 25.145 138.234 25.2694 138.271 25.5128C138.309 25.7561 138.158 25.8805 137.835 25.8805H130.62C130.291 25.8805 130.146 25.7561 130.184 25.5128C130.221 25.2694 130.351 25.145 130.588 25.145C130.847 25.145 131.068 25.1125 131.251 25.0422C131.44 24.9719 131.596 24.7934 131.726 24.4959C131.855 24.2038 131.952 23.7657 132.022 23.1762C132.092 22.592 132.125 21.7807 132.125 20.7531V18.7518C132.125 17.6971 132.092 16.8317 132.022 16.1502C131.952 15.4742 131.855 14.9387 131.726 14.5547C131.596 14.1707 131.44 13.9056 131.251 13.765C131.062 13.6244 130.841 13.5649 130.588 13.5919C130.469 13.6136 130.378 13.5973 130.308 13.5378C130.237 13.4783 130.194 13.4026 130.184 13.3107C130.173 13.2187 130.2 13.1322 130.27 13.0456C130.34 12.9645 130.459 12.8996 130.62 12.8509L135.489 11.8665C135.888 11.7746 136.125 11.7475 136.206 11.7962C136.287 11.8449 136.33 12.0883 136.33 12.5318V16.0096C136.449 15.5391 136.595 14.9387 136.767 14.2031C136.94 13.4675 137.155 12.6887 137.414 11.8665C137.673 11.0444 137.97 10.2223 138.309 9.38934C138.649 8.55639 139.037 7.80999 139.485 7.1393C139.927 6.47403 140.423 5.92775 140.973 5.50587C141.523 5.08399 142.132 4.87305 142.811 4.87305C143.582 4.87305 144.159 5.11103 144.548 5.59241C144.93 6.07378 145.119 6.59302 145.108 7.15553C145.098 7.71804 144.898 8.23728 144.515 8.71865C144.106 9.19462 143.539 9.4326 142.795 9.4326Z" fill="white"/>
<path d="M153.827 19.6924C153.827 20.7471 153.865 21.5692 153.935 22.1696C154.005 22.7645 154.102 23.2189 154.231 23.5217C154.361 23.8246 154.517 24.0139 154.706 24.0843C154.895 24.1546 155.116 24.1654 155.369 24.1167C155.601 24.0951 155.736 24.1924 155.774 24.4142C155.811 24.6359 155.66 24.782 155.337 24.8523L150.468 25.8367C150.069 25.9286 149.832 25.9557 149.751 25.907C149.67 25.8583 149.627 25.6149 149.627 25.1714V23.5921C149.276 24.1329 148.823 24.5927 148.263 24.9821C147.702 25.3661 147.093 25.6636 146.44 25.8583C145.788 26.0584 145.125 26.1342 144.461 26.0855C143.798 26.0368 143.194 25.8475 142.66 25.5068C142.121 25.166 141.684 24.663 141.345 23.9977C141.005 23.3324 140.838 22.4562 140.838 21.3799V18.7783C140.838 17.7236 140.806 16.8582 140.735 16.1767C140.665 15.4952 140.568 14.9651 140.439 14.5811C140.31 14.1971 140.153 13.9321 139.964 13.7914C139.776 13.6508 139.555 13.5913 139.301 13.6184C139.183 13.64 139.091 13.6238 139.021 13.5643C138.951 13.5048 138.908 13.4291 138.897 13.3371C138.886 13.2452 138.913 13.1586 138.983 13.0721C139.053 12.991 139.172 12.9261 139.334 12.8774L144.202 11.893C144.601 11.801 144.839 11.774 144.92 11.8227C145 11.8713 145.044 12.1147 145.044 12.5583V21.3745C145.044 22.1966 145.135 22.8402 145.324 23.3054C145.513 23.776 145.75 24.0951 146.041 24.2736C146.332 24.4466 146.661 24.5061 147.022 24.4466C147.384 24.3871 147.734 24.2573 148.074 24.0626C148.414 23.8625 148.721 23.6191 149.001 23.327C149.282 23.035 149.492 22.7375 149.632 22.4292V18.7783C149.632 17.7236 149.6 16.8582 149.53 16.1767C149.46 15.4952 149.363 14.9651 149.233 14.5811C149.104 14.1971 148.947 13.9321 148.759 13.7914C148.57 13.6508 148.349 13.5913 148.095 13.6184C147.977 13.64 147.885 13.6238 147.815 13.5643C147.745 13.5048 147.702 13.4291 147.691 13.3371C147.68 13.2452 147.707 13.1586 147.777 13.0721C147.847 12.991 147.966 12.9261 148.128 12.8774L152.997 11.893C153.396 11.801 153.633 11.774 153.714 11.8227C153.795 11.8713 153.838 12.1147 153.838 12.5583V19.6924H153.827Z" fill="white"/>
<path d="M171.092 20.7088C171.092 21.7148 171.119 22.5099 171.179 23.0995C171.238 23.6836 171.33 24.1325 171.459 24.4354C171.588 24.7383 171.745 24.933 171.933 25.0142C172.122 25.0953 172.343 25.1386 172.597 25.1386C172.829 25.1386 172.963 25.263 173.001 25.5064C173.039 25.7498 172.888 25.8742 172.564 25.8742H165.35C165.021 25.8742 164.875 25.7498 164.913 25.5064C164.951 25.263 165.08 25.1386 165.318 25.1386C165.576 25.1386 165.797 25.1061 165.981 25.0358C166.169 24.9655 166.326 24.7924 166.455 24.5112C166.585 24.2299 166.682 23.7972 166.752 23.2131C166.822 22.6289 166.86 21.8068 166.86 20.7521V16.3278C166.86 15.0892 166.66 14.2454 166.267 13.7965C165.868 13.353 165.409 13.1636 164.881 13.234C164.358 13.3043 163.846 13.5477 163.355 13.9695C162.864 14.3914 162.514 14.8241 162.303 15.2676V20.7142C162.303 21.7203 162.341 22.5153 162.411 23.1049C162.481 23.689 162.578 24.138 162.708 24.4408C162.837 24.7437 162.994 24.9384 163.182 25.0196C163.371 25.1007 163.592 25.144 163.846 25.144C164.077 25.144 164.212 25.2684 164.25 25.5118C164.288 25.7552 164.137 25.8796 163.813 25.8796H156.599C156.27 25.8796 156.124 25.7552 156.162 25.5118C156.2 25.2684 156.329 25.144 156.566 25.144C156.825 25.144 157.046 25.1115 157.23 25.0412C157.418 24.9709 157.575 24.7978 157.704 24.5166C157.834 24.2353 157.931 23.8026 158.001 23.2185C158.071 22.6343 158.103 21.8122 158.103 20.7575V18.7563C158.103 17.7016 158.071 16.8362 158.001 16.1547C157.931 15.4786 157.834 14.9431 157.704 14.5591C157.575 14.1751 157.418 13.91 157.23 13.7694C157.041 13.6288 156.82 13.5693 156.566 13.5963C156.448 13.618 156.356 13.6018 156.286 13.5423C156.216 13.4828 156.173 13.407 156.162 13.3151C156.151 13.2231 156.178 13.1366 156.248 13.0501C156.318 12.9689 156.437 12.904 156.599 12.8553L161.468 11.871C161.867 11.779 162.104 11.752 162.185 11.8006C162.266 11.8493 162.309 12.0927 162.309 12.5362V14.1156C162.659 13.5747 163.112 13.115 163.673 12.7309C164.234 12.3469 164.838 12.0494 165.496 11.8547C166.148 11.6546 166.811 11.5789 167.474 11.6276C168.138 11.6762 168.741 11.8656 169.275 12.2063C169.814 12.5471 170.251 13.0555 170.591 13.737C170.931 14.4185 171.098 15.2839 171.098 16.3386V20.7088H171.092Z" fill="white"/>
<path d="M74.6738 29.8062L74.4366 29.7737C72.0156 28.7299 69.4868 27.5345 67.3408 25.8849C67.3031 25.8524 67.2653 25.8254 67.2276 25.7929C67.1952 25.7659 67.1629 25.7442 67.1305 25.7172C65.4914 24.4299 64.014 23.002 62.7253 21.4605L62.6984 21.4281L62.5744 21.282C62.3102 20.9575 62.0513 20.6276 61.8033 20.2922C61.7494 20.2219 61.7009 20.157 61.6523 20.0867C61.0323 19.2321 60.4661 18.3343 59.9755 17.431L59.8838 17.2579C56.7996 11.4273 57.0207 5.73735 60.4445 2.39476C62.1592 0.723464 64.1003 -0.0716191 66.2085 0.0149206C70.3226 0.193409 73.768 3.67122 74.5552 4.5258C75.3424 3.67122 78.7933 0.193409 82.9019 0.0149206C85.0102 -0.0770278 86.9459 0.723464 88.6551 2.39476C89.0487 2.77878 89.3992 3.18984 89.685 3.60632C89.7227 3.65499 89.7659 3.7199 89.809 3.7848L89.8521 3.85512C90.2835 4.50957 90.6232 5.22893 90.8712 5.99697C90.8874 6.04565 90.9035 6.09433 90.9143 6.14301L90.9251 6.18087C90.9359 6.22414 90.9575 6.27823 90.9683 6.33772C91.4104 7.88462 91.4913 9.6046 91.2055 11.4544C91.2055 11.5571 91.1839 11.6491 91.1624 11.741C91.1031 12.0656 91.0437 12.3793 90.9683 12.693C90.9521 12.7579 90.9359 12.8228 90.9197 12.8823L90.9143 12.9039C89.1997 19.8595 83.1392 26.1715 74.7008 29.7954L74.6738 29.8062ZM63.0812 21.0927L63.0974 21.1144C64.3645 22.6342 65.8257 24.0513 67.4379 25.317C67.4756 25.344 67.508 25.371 67.5457 25.4035C67.5781 25.4305 67.6104 25.4576 67.6482 25.4846C69.7348 27.091 72.2151 28.2647 74.593 29.2924C82.7186 25.7875 88.7899 19.4701 90.4506 12.8012L90.456 12.7687C90.4722 12.6984 90.4884 12.6335 90.5045 12.5632C90.5746 12.2603 90.634 11.9574 90.6879 11.6599L90.6933 11.6221C90.7094 11.5409 90.7256 11.476 90.7256 11.4219L90.731 11.3841C91.006 9.60459 90.9359 7.94952 90.5099 6.46753C90.4938 6.41345 90.4776 6.36477 90.4668 6.31609C90.4452 6.24037 90.4291 6.1971 90.4183 6.15383C90.181 5.42906 89.8575 4.75297 89.4585 4.13637L89.3992 4.05524C89.3668 4.00656 89.3345 3.95247 89.2914 3.9038C89.011 3.49273 88.6821 3.11412 88.3154 2.75174C86.7032 1.18321 84.8969 0.425984 82.9289 0.512524C78.556 0.701829 74.814 4.98554 74.7763 5.02881L74.7008 5.11535H74.4204L74.3449 5.02881C74.3072 4.98554 70.5652 0.701829 66.187 0.512524C64.2243 0.425984 62.4072 1.1778 60.795 2.75174C57.5329 5.93207 57.3496 11.3895 60.3151 16.9983L60.4176 17.1876C60.8921 18.0693 61.4474 18.9509 62.0675 19.8C62.116 19.8758 62.1538 19.9244 62.1969 19.9839C62.445 20.3139 62.6984 20.6438 62.9572 20.9629L63.0812 21.0927Z" fill="white"/>
<path d="M90.698 12.2884C90.698 12.3695 90.6764 12.456 90.6549 12.548C90.6009 12.8292 90.5416 13.1159 90.4715 13.3971C90.4554 13.462 90.4392 13.5269 90.423 13.5919C88.9025 19.39 83.3973 25.8264 74.5869 29.3907L74.4629 29.3367C71.864 28.2765 69.6156 26.9622 67.6098 25.5073C67.5343 25.4532 67.475 25.4045 67.3995 25.3504C65.7495 24.1281 64.3099 22.8029 63.0913 21.4237C63.0913 21.4237 63.0913 21.4237 63.0859 21.4183C63.0428 21.3696 62.9997 21.3209 62.9565 21.2722C62.6977 20.9694 62.4443 20.6665 62.2017 20.3636C62.1477 20.2987 62.11 20.25 62.0669 20.1851C61.4468 19.3792 60.9022 18.5625 60.4277 17.7403C60.3954 17.6863 60.3684 17.6322 60.336 17.5835C60.3307 17.5781 60.3307 17.5727 60.3253 17.5673C57.4514 12.4452 57.4675 7.19333 60.8429 4.08872C67.2215 -1.76352 74.5222 6.21435 74.5222 6.21435H74.5761C74.5761 6.21435 81.8768 -1.76893 88.2447 4.08872C88.6113 4.42406 88.9456 4.79185 89.226 5.17587C89.2907 5.2516 89.3392 5.33273 89.3931 5.40845C89.8083 6.00341 90.1318 6.64705 90.3637 7.33396C90.3799 7.37723 90.3907 7.4205 90.4068 7.46377C90.4122 7.47458 90.4122 7.47999 90.4176 7.49081C90.4338 7.53949 90.45 7.58817 90.4661 7.63684C90.9029 9.05393 90.973 10.6333 90.698 12.2884Z" fill="#EE2D42"/>
<path d="M73.5909 11.5469L74.0006 11.5685L74.0815 11.8011L73.758 11.8227L73.5801 11.5793L73.5909 11.5469Z" fill="#D51C56"/>
<path d="M74.0377 10.875L74 11.4159L74.2265 11.378L74.3882 11.1887L74.0377 10.875Z" fill="#D51C56"/>
<path d="M74.7221 11.1621L74.3555 11.4812L74.4256 11.7246L74.6628 11.6327L74.7221 11.1621Z" fill="#D51C56"/>
<path d="M90.6987 12.2875C90.6987 12.3686 90.6771 12.4552 90.6555 12.5471C90.6016 12.8284 90.5423 13.115 90.4722 13.3963C90.456 13.4612 90.4398 13.5261 90.4237 13.591L90.3644 13.6018C90.3428 13.6072 90.3212 13.6126 90.2997 13.618C90.2781 13.6235 90.2565 13.6289 90.235 13.6343C90.181 13.6451 90.1217 13.6613 90.0624 13.6721C89.5987 13.7695 88.9625 13.9101 88.6875 13.948H88.6713C88.461 13.9804 88.0944 14.0345 87.6199 14.0345C87.3934 14.0345 87.1454 14.0237 86.8758 13.9858C86.7841 14.305 86.2341 14.5862 85.091 14.9107C84.9347 14.9486 84.7945 14.9648 84.6705 14.9648C83.921 14.9648 83.6083 14.3915 83.5274 14.2076C83.4735 14.2022 83.4196 14.2022 83.3656 14.1968L83.2955 14.1914C82.8103 14.1481 82.3789 13.9426 82.0177 13.6884C81.9529 13.8344 81.8613 13.9372 81.7373 14.0075C81.6294 14.067 81.5054 14.094 81.3814 14.094C81.004 14.094 80.6211 13.8614 80.5996 13.8506L80.5888 13.8398C80.2221 13.5315 79.9364 13.2124 79.7099 12.9041C79.6776 12.9149 79.6452 12.9257 79.6182 12.9311C79.1491 13.0555 78.5291 13.1799 77.9575 13.1799C77.7796 13.1799 77.6124 13.1691 77.4507 13.1421H77.4453C76.987 13.0393 76.6904 12.8662 76.5395 12.6174C76.5287 12.6012 76.5179 12.5796 76.5071 12.5633C76.5017 12.5525 76.4963 12.5471 76.4963 12.5363C76.4855 12.5201 76.4801 12.4984 76.4748 12.4768C76.4694 12.466 76.464 12.4552 76.464 12.4444C76.464 12.4389 76.4586 12.4281 76.4586 12.4227C76.4532 12.4119 76.4532 12.4065 76.4532 12.3957C76.4478 12.3686 76.4424 12.3416 76.437 12.3145C76.437 12.3037 76.4316 12.2929 76.4316 12.2821C76.4316 12.2659 76.4262 12.2496 76.4262 12.2334C76.4154 12.0171 76.4694 11.8007 76.5125 11.6114L76.5179 11.579L76.5233 11.5465C76.5287 11.5357 76.5287 11.5195 76.5341 11.5086C76.5341 11.5032 76.5395 11.4978 76.5395 11.4924C76.5395 11.487 76.5448 11.4816 76.5448 11.4762C76.5502 11.4708 76.5502 11.4654 76.5556 11.46C76.561 11.4491 76.5664 11.4437 76.5718 11.4329L76.5772 11.4221C76.5826 11.4167 76.588 11.4113 76.5934 11.4005C76.685 11.2869 76.8468 11.1895 77.0625 11.0976C77.0786 11.0922 77.0948 11.0868 77.111 11.0759C77.1272 11.0705 77.1487 11.0597 77.1649 11.0543C77.1811 11.0489 77.1919 11.0435 77.2081 11.0381C77.235 11.0273 77.2674 11.0164 77.2997 11.0056C77.4992 10.9353 77.7203 10.8758 77.9683 10.8163C77.9953 10.8109 78.0276 10.8001 78.0546 10.7947C78.0869 10.7839 78.1247 10.7785 78.157 10.7731C78.1948 10.7622 78.2379 10.7568 78.281 10.746C78.335 10.7352 78.3889 10.7244 78.4428 10.7136C78.4859 10.7027 78.5345 10.6973 78.5776 10.6865C78.68 10.6649 78.7825 10.6487 78.8849 10.627C79.0144 10.0537 79.3486 9.58313 79.8824 9.22075C79.5913 9.35597 79.3001 9.52364 78.9604 9.72376C78.6639 9.89684 78.3458 10.0807 77.9521 10.2917C77.8605 10.3404 77.7688 10.389 77.6664 10.4377C77.6124 10.4648 77.5585 10.4918 77.4992 10.5188C77.4776 10.5297 77.4561 10.5405 77.4399 10.5513C77.0571 10.7406 76.7174 10.865 76.4208 10.9353H76.4154C76.2483 10.9732 76.0919 10.9948 75.9517 10.9948C75.9248 10.9948 75.8978 10.9948 75.8762 10.9948C75.5635 10.9786 75.3263 10.8542 75.1699 10.627L75.1591 10.6108C74.9758 10.216 75.5258 9.83193 76.0164 9.49659C76.0865 9.44792 76.1512 9.39924 76.2159 9.35597C76.3238 9.28024 76.4208 9.1883 76.5071 9.08553C77.6071 7.79825 79.5428 6.79223 80.152 6.60292L80.1628 6.59752H80.1736C81.1603 6.51638 82.1147 6.37576 83.123 6.22431C83.8563 6.11614 84.6112 6.00256 85.3876 5.91602H85.3984C85.42 5.91602 85.4361 5.91602 85.4577 5.91602C87.8571 5.91602 89.6526 6.86254 90.3698 7.31147C90.3859 7.35474 90.3967 7.39801 90.4129 7.44128C90.3967 7.44669 90.3913 7.45209 90.4237 7.46832C90.4398 7.517 90.456 7.56568 90.4722 7.61436C90.9035 9.05308 90.9736 10.6324 90.6987 12.2875Z" fill="#FFFDFD"/>
<path d="M81.3752 15.4741C81.1811 15.8419 80.6797 16.1015 79.8925 16.253C79.0028 16.4206 77.9999 16.6208 77.1372 16.7884C76.5225 16.9291 76.0696 17.021 76.0588 17.021L76.0534 16.9994C75.7083 17.0697 75.4279 17.1292 75.2554 17.167C75.1152 17.1995 74.8726 17.2265 74.5652 17.259C73.3844 17.3942 71.1953 17.643 70.3757 18.5355C70.3218 18.622 70.2679 18.7085 70.2139 18.7897C69.7556 19.509 69.5292 19.9039 69.8635 20.2825C69.9605 20.3906 70.2032 20.5367 70.4835 20.7098C71.4433 21.2885 73.0501 22.2567 72.7535 24.0199C72.7643 24.1227 72.8075 24.577 72.5487 24.7014C72.5055 24.723 72.4624 24.7339 72.4085 24.7339C72.182 24.7339 71.88 24.5229 71.4649 24.0902L71.3247 23.9712C70.1492 22.976 69.0331 22.0403 66.5582 21.7104C66.3803 21.6887 66.1916 21.6671 65.9867 21.6455C65.1941 21.5643 64.2936 21.467 63.5387 21.0992C63.501 21.083 63.4686 21.0667 63.4363 21.0451L63.0858 21.4129C63.0427 21.3642 62.9995 21.3155 62.9564 21.2669C62.6976 20.964 62.4442 20.6611 62.2015 20.3582C62.1476 20.2933 62.1099 20.2446 62.0667 20.1797C61.4467 19.3738 60.9021 18.5571 60.4276 17.735C60.3952 17.6809 60.3683 17.6268 60.3359 17.5781C60.7781 17.1562 61.1933 16.7614 61.4413 16.5234C61.4682 16.4964 61.4952 16.4693 61.5222 16.4477C62.3202 15.6851 64.0618 15.1658 65.9058 14.6141L66.2563 14.5114C66.8925 14.3221 67.4263 14.1165 67.89 13.9218C68.0302 13.792 69.3027 12.5696 70.2355 11.4608C71.0443 10.5035 72.0095 9.34061 72.3384 8.94578C72.3923 8.88087 72.43 8.8376 72.4462 8.82138C72.457 8.79974 72.4839 8.74025 72.5217 8.66452C72.5972 8.51849 72.7104 8.29132 72.8452 8.06956C73.2766 7.34479 73.4922 7.29071 73.6163 7.30693C73.8211 7.33938 73.8697 7.63146 73.8858 7.74504C74.0099 8.01007 74.1015 8.30755 74.0692 8.68075C73.7457 9.35143 73.406 10.0437 73.1148 10.6333C72.484 11.4987 71.7183 12.4236 71.3516 12.8509C72.1658 12.6129 73.131 12.2776 73.8158 11.9909C73.9074 11.953 73.9937 11.9152 74.0746 11.8773H74.08C74.1231 11.8611 74.1608 11.8394 74.204 11.8232C74.2363 11.807 74.2741 11.7908 74.3064 11.7745C74.3442 11.7583 74.3819 11.7421 74.4197 11.7205C74.479 11.6934 74.5383 11.6664 74.603 11.6339C74.6192 11.6231 74.6407 11.6177 74.6569 11.6069C74.6785 11.5961 74.7 11.5852 74.7216 11.5744C75.126 11.3797 75.5304 11.1742 75.8755 11.0011C76.0588 10.9091 76.2206 10.8226 76.3554 10.7523C76.5872 10.6333 76.7274 10.5576 76.7328 10.5522L76.7436 10.5468C76.8406 10.5089 77.1372 10.3953 77.4499 10.3358C77.6278 10.298 77.8058 10.2817 77.9568 10.298C78.07 10.3142 78.167 10.3466 78.2264 10.417C78.3018 10.4981 78.318 10.6117 78.2857 10.7523C78.2749 10.7847 78.2641 10.8226 78.2533 10.8605C78.2371 10.8983 78.221 10.9362 78.2048 10.9741C78.2048 10.9795 78.1994 10.9849 78.194 10.9903L78.1886 10.9957C78.0916 11.1417 77.9298 11.3202 77.7087 11.5257C77.5038 11.7096 77.2504 11.9152 76.9485 12.1261C76.8514 12.1964 76.749 12.2667 76.6411 12.337C76.6142 12.3587 76.5818 12.3749 76.5549 12.3965C76.5279 12.4128 76.4955 12.4344 76.4686 12.4506C76.0426 12.7265 75.5466 13.0131 75.002 13.289C74.8187 13.3863 74.6245 13.4783 74.4304 13.5702C73.9236 13.8082 73.379 14.0408 72.8075 14.2517C73.7996 14.3491 76.2799 14.5925 78.318 14.7493C78.6954 14.6628 79.0675 14.5817 79.3964 14.5059C80.3669 14.2842 80.7174 14.2085 80.7929 14.2085C80.8307 14.2085 80.9547 14.2247 80.9924 14.414C81.014 14.5222 80.9978 14.6953 80.9277 14.8846C81.0194 14.8846 81.1002 14.8792 81.165 14.8792C81.2297 14.8737 81.2836 14.8683 81.3213 14.8629C81.3699 14.8521 81.413 14.8792 81.4345 14.9224C81.4345 14.9441 81.5316 15.1874 81.3752 15.4741Z" fill="#FFFDFD"/>
<path d="M72.3496 8.95041C72.3496 8.95041 73.2824 9.37229 73.8162 8.06879C73.8162 8.06879 73.9079 7.26289 73.5682 7.39811C73.2285 7.53332 72.3496 8.95041 72.3496 8.95041Z" fill="#F0BCD3"/>
<path d="M80.3945 15.593C80.3945 15.593 81.1817 15.5768 81.3165 15.2955C81.4513 15.0143 81.1656 14.9926 81.1656 14.9926C81.1656 14.9926 80.9175 14.9872 80.896 14.9926C80.869 14.998 80.3945 15.593 80.3945 15.593Z" fill="#F0BCD3"/>
<path d="M81.4292 14.9384C81.4131 14.8951 81.3645 14.8681 81.316 14.8789C81.2783 14.8897 81.2243 14.8951 81.1596 14.8951C81.0949 14.9005 81.0141 14.9005 80.9224 14.9005C80.9925 14.7058 81.0033 14.5381 80.9871 14.43C80.9494 14.2406 80.8253 14.2244 80.7876 14.2244C80.7121 14.2244 80.3616 14.3001 79.3911 14.5219C79.0622 14.5976 78.6901 14.6788 78.3127 14.7653C76.2692 14.6084 73.7889 14.365 72.8022 14.2677C73.3737 14.0567 73.9183 13.8242 74.4251 13.5862C74.6192 13.4942 74.8133 13.3969 74.9967 13.3049C75.5413 13.0237 76.0319 12.7424 76.4633 12.4666C76.4902 12.4504 76.5226 12.4287 76.5495 12.4125C76.5819 12.3909 76.6089 12.3746 76.6358 12.353C76.7437 12.2827 76.8461 12.2124 76.9432 12.1421C76.9809 12.115 77.0186 12.088 77.051 12.0609C77.078 12.0393 77.1049 12.0231 77.1319 12.0014C77.1427 11.9906 77.1534 11.9852 77.1696 11.9744C77.1804 11.9636 77.1912 11.9582 77.2074 11.9473C77.2451 11.9203 77.2775 11.8933 77.3152 11.8662C77.3314 11.8554 77.3475 11.8392 77.3637 11.8284C77.3799 11.8175 77.3961 11.8013 77.4123 11.7905C77.4284 11.7797 77.4446 11.7689 77.4554 11.7526C77.4716 11.7418 77.4877 11.7256 77.4985 11.7148C77.5147 11.704 77.5255 11.6877 77.5417 11.6769C77.5578 11.6661 77.5686 11.6553 77.5848 11.639C77.6064 11.6228 77.6279 11.6012 77.6441 11.585C77.6657 11.5687 77.6819 11.5525 77.698 11.5363C77.698 11.5363 77.698 11.5363 77.7034 11.5309C77.9245 11.3308 78.0916 11.1523 78.1833 11.0008L78.1887 10.9954C78.1941 10.99 78.1941 10.9846 78.1995 10.9792C78.221 10.9413 78.2372 10.9035 78.248 10.8656C78.2642 10.8277 78.275 10.7899 78.2804 10.7574C78.3181 10.6168 78.2965 10.5032 78.221 10.4221C78.1617 10.3518 78.0647 10.3139 77.9515 10.3031C77.8005 10.2869 77.6225 10.3031 77.4446 10.341C77.1373 10.4059 76.8407 10.514 76.7383 10.5519L76.7275 10.5573C76.7221 10.5573 76.5765 10.6384 76.35 10.7574C76.2153 10.8277 76.0535 10.9089 75.8702 11.0062C75.8486 11.017 75.827 11.0279 75.8055 11.0387C75.7408 11.0711 75.6707 11.109 75.6006 11.1414C75.5682 11.1577 75.5305 11.1793 75.4927 11.1955C75.4226 11.2334 75.3471 11.2658 75.2771 11.3037C75.0937 11.3957 74.905 11.4876 74.7163 11.5796C74.6947 11.5904 74.6732 11.6012 74.6516 11.612C74.6354 11.6228 74.6138 11.6282 74.5977 11.639C74.5384 11.6661 74.4737 11.6985 74.4143 11.7256C74.3766 11.7418 74.3389 11.758 74.3011 11.7797C74.2688 11.7959 74.231 11.8121 74.1987 11.8284C74.1555 11.8446 74.1178 11.8662 74.0747 11.8824H74.0693C73.9884 11.9203 73.9021 11.9582 73.8104 11.996C73.1203 12.2827 72.1551 12.618 71.3463 12.856C71.713 12.4233 72.484 11.5038 73.1095 10.6384C73.2173 10.487 73.3198 10.341 73.4168 10.2003C73.8482 9.56751 74.0261 9.08072 74.0585 8.68588C74.0908 8.31268 73.9992 8.0152 73.8751 7.75017C73.859 7.63118 73.8158 7.34452 73.6056 7.31207C73.4815 7.29043 73.2659 7.34993 72.8345 8.0747C72.7051 8.29646 72.5865 8.52362 72.511 8.66966C72.4732 8.74538 72.4463 8.79947 72.4355 8.82651C72.4193 8.84274 72.3816 8.88601 72.3277 8.95091C72.0042 9.34575 71.0336 10.5032 70.2248 11.466C69.292 12.5694 68.0195 13.7971 67.8793 13.9269C67.421 14.1162 66.8818 14.3218 66.2456 14.5165L65.8951 14.6193C64.0511 15.1709 62.3149 15.6902 61.5115 16.4528C61.4845 16.4745 61.4575 16.5015 61.4306 16.5285C61.1394 16.8044 60.7296 17.183 60.3145 17.567C60.3198 17.5724 60.3198 17.5778 60.3252 17.5832C60.3576 17.6373 60.3845 17.6914 60.4169 17.7401C60.8806 17.3128 61.3443 16.8855 61.6463 16.5934C62.4119 15.8633 64.1319 15.3494 65.949 14.8086L66.2995 14.7058C67.2916 14.4083 68.0411 14.0784 68.645 13.8134C69.2219 13.5591 69.6371 13.3752 69.9552 13.3644C70.6184 13.3428 72.786 12.6559 73.9884 12.1367C74.0423 12.115 74.0908 12.0934 74.134 12.0717C74.2849 12.0014 74.4413 11.9311 74.6031 11.8554C75.2609 11.5417 75.9672 11.1847 76.3932 10.9575H76.3986C76.404 10.9575 76.404 10.9521 76.4094 10.9521C76.625 10.8386 76.7706 10.7628 76.7976 10.7466C77.0025 10.6655 77.2559 10.5898 77.4823 10.5411C77.698 10.4978 77.8975 10.4816 78 10.5249C78 10.5249 78.0054 10.5249 78.0054 10.5303C78.0215 10.5357 78.0377 10.5465 78.0485 10.5573L78.0539 10.5627C78.0539 10.5627 78.0539 10.5627 78.0539 10.5681C78.0916 10.6114 78.0809 10.7033 78.0323 10.8223C78.0215 10.8494 78.0054 10.8818 77.9892 10.9143C77.9838 10.9251 77.9784 10.9305 77.973 10.9413C77.9461 10.9792 77.9137 11.0225 77.876 11.0657C77.7465 11.2172 77.5632 11.3902 77.3314 11.585C77.299 11.612 77.2667 11.6336 77.2343 11.6607C77.1588 11.7202 77.078 11.7851 76.9917 11.8446C76.8677 11.9365 76.7329 12.0285 76.5927 12.1258C76.5603 12.1475 76.528 12.1691 76.4902 12.1961C76.4579 12.2178 76.4255 12.2394 76.3932 12.2611C75.9672 12.5369 75.4766 12.8236 74.932 13.1048C74.7594 13.1968 74.5815 13.2833 74.3928 13.3698C73.7457 13.6781 73.0394 13.9756 72.2845 14.2352L72.1713 14.2731C72.0958 14.3001 72.112 14.4083 72.1875 14.4137L72.3061 14.4245C72.5002 14.4462 75.2016 14.722 77.6118 14.9167C76.7275 15.106 75.9349 15.2629 75.7408 15.2467C75.2663 15.2088 73.1418 15.3765 72.608 15.4197C72.5433 15.4252 72.4948 15.4792 72.5002 15.5496C72.5056 15.6145 72.5649 15.6631 72.6296 15.6577C73.1526 15.6145 75.2717 15.4468 75.7246 15.4847C75.9942 15.5063 77.0618 15.2845 78.4313 14.9816C78.4475 14.9816 78.4637 14.9816 78.4799 14.9871C79.2833 15.0465 80.0058 15.0898 80.5342 15.106C80.5288 15.1115 80.5288 15.1169 80.5234 15.1169C80.367 15.3548 80.0759 15.6469 79.5528 15.8524C78.275 16.3446 76.005 16.799 75.9834 16.8044L75.9888 16.826C75.6383 16.8963 75.3579 16.9558 75.1854 16.9937C75.056 17.0207 74.8187 17.0478 74.5168 17.0856C73.309 17.2263 71.0606 17.4805 70.1979 18.4324L70.1871 18.4486C70.1332 18.5406 70.0738 18.6271 70.0199 18.7083C69.6425 19.2978 69.3351 19.7792 69.5454 20.2281L68.6342 19.7359C68.5857 19.7089 68.5264 19.7305 68.4994 19.7792C68.4886 19.7954 68.4886 19.8116 68.4886 19.8279C68.4886 19.8603 68.5102 19.8982 68.5425 19.9144L70.09 20.7419C70.1709 20.796 70.2626 20.8501 70.3596 20.9042C70.8826 21.2179 71.6105 21.656 72.085 22.2834C72.4409 22.754 72.6566 23.3219 72.5326 24.0304V24.0467V24.0629C72.5595 24.2306 72.5433 24.5064 72.4409 24.5551C72.3924 24.5767 72.1821 24.6092 71.5836 23.9818L71.4326 23.852C71.2816 23.7221 71.1307 23.5977 70.9743 23.4733C69.9175 22.6079 68.7744 21.8399 66.5637 21.5478C66.3858 21.5262 66.1917 21.5046 65.9868 21.4829C65.2103 21.4018 64.326 21.3099 63.6035 20.9529C62.8001 20.558 62.358 19.9144 62.2502 18.9787C62.2448 18.9246 62.1962 18.8867 62.1423 18.8922C62.0884 18.8976 62.0507 18.9408 62.0507 18.9895C62.0507 18.9949 62.0507 18.9949 62.0507 19.0003C62.1531 19.8928 62.5413 20.5418 63.2369 20.9745L62.9349 21.299C62.9781 21.3477 63.0212 21.3964 63.0643 21.4451C63.0643 21.4451 63.0643 21.4451 63.0697 21.4505L63.4202 21.0827C63.4526 21.0989 63.4903 21.1205 63.5226 21.1368C64.2775 21.51 65.178 21.6019 65.9706 21.6831C66.1755 21.7047 66.3642 21.7263 66.5421 21.748C69.017 22.0779 70.1278 23.019 71.3086 24.0088L71.4488 24.1278C71.864 24.5605 72.1659 24.7714 72.3924 24.7714C72.4409 24.7714 72.4894 24.7606 72.5326 24.739C72.7914 24.6146 72.7482 24.1603 72.7375 24.0575C73.0286 22.2888 71.4272 21.3261 70.4675 20.7473C70.1871 20.5797 69.9444 20.4336 69.8474 20.3201C69.5131 19.9414 69.7395 19.5466 70.1979 18.8272C70.2518 18.7461 70.3057 18.6596 70.3596 18.573C71.1792 17.6806 73.3737 17.4318 74.5491 17.2966C74.8565 17.2587 75.0991 17.2317 75.2393 17.2046C75.4118 17.1668 75.6922 17.1073 76.0373 17.037L76.0427 17.0586C76.0535 17.0586 76.5064 16.9666 77.1211 16.826C77.9838 16.6583 78.9867 16.4582 79.8764 16.2906C80.6636 16.1391 81.1596 15.8795 81.3591 15.5117C81.5317 15.1872 81.4346 14.9438 81.4292 14.9384ZM69.9714 13.1643C69.6155 13.1751 69.1842 13.3644 68.5857 13.6295C68.5264 13.6565 68.467 13.6835 68.4077 13.7106C68.8876 13.2346 69.7288 12.3855 70.3974 11.5958C71.2655 10.5681 72.3115 9.30789 72.5595 9.01041C72.5919 8.96714 72.6134 8.9455 72.6134 8.9455L72.6242 8.93469L72.6296 8.92387C72.6296 8.91846 72.8075 8.53985 73.0232 8.17746C73.4222 7.50678 73.5786 7.50678 73.5948 7.51219C73.6217 7.5176 73.6703 7.5825 73.7026 7.79885V7.81508L73.708 7.8313C73.7404 7.90162 73.7781 7.98275 73.8158 8.08551C73.9398 8.45872 73.9776 9.06449 73.2713 10.0976C72.4679 11.2821 71.19 12.7695 71.0174 12.9642C70.5591 13.0778 70.1817 13.1535 69.9714 13.1643ZM79.1323 14.8248C79.2347 14.8032 79.3372 14.7761 79.4396 14.7545C80.0273 14.6193 80.5881 14.4949 80.7499 14.4678C80.7606 14.5165 80.7606 14.6301 80.7121 14.7869C80.7013 14.8194 80.6852 14.8572 80.669 14.9005C80.2754 14.8897 79.7416 14.8627 79.1323 14.8248ZM81.1704 15.4306C81.0302 15.6361 80.6905 15.8957 79.8548 16.058C79.7416 16.0796 79.6229 16.1012 79.5043 16.1283C79.5636 16.1067 79.6176 16.085 79.6769 16.0634C80.0112 15.9336 80.2646 15.7713 80.4587 15.5874C80.6312 15.4252 80.7552 15.2575 80.8415 15.0952C81.0194 15.0952 81.165 15.0898 81.2675 15.0844C81.2783 15.1547 81.2729 15.2629 81.2028 15.3873C81.192 15.4035 81.1812 15.4143 81.1704 15.4306Z" fill="#4A4A4A"/>
<path d="M74.4155 13.602C74.491 13.5642 74.367 12.9097 74.2376 12.569C74.1729 12.3905 73.9141 11.9632 73.9141 11.9632L74.6042 11.7793C74.6042 11.7793 74.7552 12.1255 74.8684 12.6339C74.9817 13.1423 74.9978 13.3154 74.9978 13.3154L74.4155 13.602Z" fill="#4A4A4A"/>
<path d="M78.4707 14.8895C78.4707 14.8895 78.8859 16.047 80.4495 15.1762C81.1451 14.7868 80.8378 14.3162 80.6868 14.3324C80.5412 14.3433 78.4707 14.8895 78.4707 14.8895Z" fill="#F0BCD3"/>
<path d="M76.4319 10.9501C76.4319 10.9501 76.1946 12.1563 77.3647 11.5721C78.5293 10.988 78.0872 10.5607 78.0872 10.5607C78.0872 10.5607 77.6828 10.1442 76.4319 10.9501Z" fill="#F0BCD3"/>
<path d="M90.4721 7.63088C90.4452 7.60925 90.4128 7.58761 90.3751 7.56598C89.755 7.16032 87.9218 6.11644 85.4145 6.13267C84.6435 6.2192 83.8886 6.33279 83.1661 6.44096C82.1578 6.59241 81.2088 6.73303 80.2167 6.81416C79.5912 7.01429 77.6124 8.05276 76.5664 9.36168L76.5556 9.3779C76.4477 9.46985 76.2968 9.57262 76.1404 9.68079C75.763 9.94041 75.2453 10.2974 75.3478 10.5408C75.5527 10.8328 75.9409 10.8599 76.3669 10.7679C76.6958 10.6976 77.057 10.5516 77.3698 10.3947C77.4021 10.3785 77.4291 10.3677 77.4614 10.3515C78.0545 10.0594 78.4913 9.80519 78.8795 9.57802C79.5104 9.21023 80.1035 8.98306 80.7451 8.83162L80.6642 8.96684L80.6534 8.98847C80.6157 8.99929 80.5834 9.0047 80.5456 9.01552C80.3138 9.07501 80.1089 9.15614 79.904 9.24809C79.6128 9.38331 79.3216 9.55098 78.9819 9.7511C78.6854 9.92418 78.3673 10.1081 77.9737 10.319C77.882 10.3677 77.7903 10.4164 77.6879 10.4651C77.634 10.4921 77.58 10.5191 77.5207 10.5462C77.4992 10.557 77.4776 10.5678 77.4614 10.5786C77.0786 10.7679 76.7389 10.8923 76.4424 10.9627H76.437C76.2698 11.0005 76.1134 11.0222 75.9732 11.0222C75.9463 11.0222 75.9193 11.0222 75.8978 11.0222C75.585 11.0059 75.3478 10.8815 75.1914 10.6544L75.1806 10.6381C74.9973 10.2433 75.5473 9.85928 76.038 9.52394C76.1081 9.47526 76.1728 9.42658 76.2375 9.38331C76.3453 9.30759 76.4423 9.21564 76.5286 9.11287C77.6286 7.8256 79.5643 6.81957 80.1736 6.63027L80.1844 6.62486H80.1951C81.1819 6.54373 82.1362 6.4031 83.1445 6.25166C83.8778 6.14348 84.6327 6.0299 85.4091 5.94336H85.4199C85.4415 5.94336 85.4577 5.94336 85.4792 5.94336C87.8786 5.94336 89.6741 6.88989 90.3913 7.33881C90.4074 7.38208 90.4182 7.42535 90.4344 7.46862C90.4398 7.47944 90.4398 7.48485 90.4452 7.49566C90.4452 7.53353 90.4614 7.5822 90.4721 7.63088Z" fill="#4A4A4A"/>
<path d="M83.8724 8.5627C83.8724 8.5627 79.4457 8.20031 78.9766 10.7478C78.9766 10.7478 79.0035 12.3921 80.6588 13.7821C80.6588 13.7821 82.0446 14.6313 82.0338 13.0519C82.0338 13.0519 79.5319 10.3638 83.1122 9.62281L83.8724 8.5627Z" fill="white"/>
<path d="M83.8841 8.46525L83.8787 8.54638V8.5626L83.8733 8.65996C83.8733 8.65996 83.8518 8.65996 83.814 8.65455C83.787 8.65455 83.7547 8.64914 83.7169 8.64914C83.6684 8.64914 83.6091 8.64373 83.539 8.64373C83.1238 8.63292 82.3851 8.64373 81.6249 8.79518C80.2014 9.07643 79.3603 9.68221 79.1176 10.6071C79.1069 10.6396 79.1015 10.6774 79.0907 10.7099C79.0853 10.7261 79.0853 10.7369 79.0799 10.7531C79.0799 10.764 79.0799 10.7856 79.0853 10.8126C79.1069 11.0452 79.2201 11.8295 79.8024 12.6895C79.824 12.7165 79.8402 12.7436 79.8617 12.776C79.8833 12.803 79.8995 12.8301 79.921 12.8625C80.1313 13.1438 80.3901 13.4305 80.719 13.7063C80.7783 13.7442 81.3175 14.0471 81.6465 13.8577C81.7381 13.8037 81.8082 13.7117 81.8567 13.5873C81.8675 13.5549 81.8783 13.5224 81.8891 13.4845C81.8999 13.4467 81.9053 13.4142 81.9107 13.371C81.9214 13.2898 81.9322 13.1979 81.9322 13.0951C81.8513 13.0086 81.6249 12.7381 81.4254 12.3758C81.4092 12.3487 81.393 12.3163 81.3769 12.2892C81.3607 12.2622 81.3445 12.2297 81.3337 12.1973C81.3175 12.1702 81.3068 12.1378 81.2906 12.1107C81.1126 11.7159 81.0048 11.2561 81.145 10.818C81.3445 10.1906 81.9969 9.76334 83.0861 9.53617L83.1077 9.63353L83.1292 9.73089C82.1155 9.94183 81.5117 10.3258 81.3337 10.8775C81.2205 11.2291 81.296 11.6077 81.4362 11.9485C81.4631 12.0134 81.4955 12.0783 81.5224 12.1432C81.5386 12.1756 81.5548 12.2027 81.571 12.2297C81.5871 12.2622 81.6033 12.2892 81.6195 12.3163C81.8459 12.7057 82.094 12.9815 82.0994 12.9869L82.1263 13.014V13.0518C82.1263 13.2195 82.1155 13.371 82.0832 13.5008C82.0778 13.5386 82.067 13.5711 82.0562 13.6035C82.0454 13.636 82.0347 13.6684 82.0185 13.7009C81.9538 13.8469 81.8621 13.9497 81.7381 14.02C81.6303 14.0795 81.5063 14.1065 81.3822 14.1065C81.0048 14.1065 80.622 13.874 80.6004 13.8632L80.5896 13.8523C80.223 13.544 79.9372 13.2249 79.7108 12.9166C79.6892 12.8896 79.6676 12.8625 79.6514 12.8301C79.6299 12.803 79.6137 12.7706 79.5921 12.7435C79.0206 11.8836 78.902 11.1101 78.8804 10.8397C78.875 10.7856 78.875 10.7531 78.875 10.7423V10.7315V10.7207C78.8804 10.6936 78.8858 10.6666 78.8912 10.6396C79.0206 10.0662 79.3549 9.59567 79.8887 9.23329C80.1313 9.07102 80.4117 8.9304 80.7298 8.81681C80.9886 8.72486 81.269 8.64914 81.571 8.58965C82.59 8.38952 83.5768 8.43279 83.814 8.44902C83.8625 8.45984 83.8787 8.46525 83.8841 8.46525Z" fill="#4A4A4A"/>
<path d="M80.9609 12.4668C80.9609 12.4668 81.9261 13.9867 83.301 14.1111C84.3525 14.1652 84.7569 14.2084 85.0642 13.3539C85.0642 13.3539 80.8261 11.5473 82.6163 10.6387L80.9609 12.4668Z" fill="white"/>
<path d="M85.1885 13.2999L85.1562 13.3865C85.1454 13.4189 85.1346 13.4514 85.1184 13.4838C84.865 14.1112 84.5307 14.2356 83.9322 14.2356C83.8729 14.2356 83.8082 14.2356 83.7435 14.2302C83.6734 14.2302 83.5979 14.2248 83.5224 14.2194C83.4685 14.214 83.4146 14.214 83.3607 14.2086L83.2906 14.2032C82.8053 14.1599 82.374 13.9544 82.0127 13.7002C81.9857 13.6785 81.9588 13.6623 81.9318 13.6407C81.9049 13.619 81.8779 13.5974 81.8509 13.5758C81.3064 13.1485 80.9559 12.6401 80.8858 12.5319C80.8804 12.5211 80.875 12.5157 80.875 12.5102L80.9559 12.4562L81.0368 12.4021C81.0368 12.4021 81.0529 12.4291 81.0799 12.467C81.1877 12.6184 81.4789 13.0078 81.8995 13.3594C81.9264 13.381 81.9588 13.4081 81.9857 13.4297C82.0127 13.4514 82.045 13.473 82.072 13.4946C82.4171 13.7488 82.8377 13.9598 83.296 13.9976L83.3607 14.0031C84.3097 14.0517 84.6547 14.0734 84.9243 13.3973C84.8596 13.3702 84.768 13.327 84.6493 13.2729C84.644 13.2729 84.644 13.2675 84.6386 13.2675C84.3636 13.1377 83.9646 12.9375 83.5656 12.705C83.172 12.4724 82.8538 12.256 82.6166 12.0451C82.5842 12.018 82.5573 11.991 82.5249 11.964C82.498 11.9369 82.4656 11.9099 82.4387 11.8828C82.2068 11.6448 82.0774 11.4285 82.0612 11.2284C82.0612 11.2176 82.0612 11.2067 82.0612 11.1959C82.0504 10.9363 82.2176 10.72 82.5573 10.5469L82.6004 10.6334L82.6436 10.72C82.3793 10.8552 82.2499 11.0066 82.2553 11.1851C82.2607 11.3852 82.4225 11.607 82.6651 11.8287C82.6921 11.8558 82.7244 11.8828 82.7568 11.9099C82.7891 11.9369 82.8215 11.964 82.8538 11.991C83.3876 12.4129 84.1587 12.8239 84.7087 13.089C84.8489 13.1539 84.9783 13.2134 85.0807 13.2566L85.1885 13.2999Z" fill="#4A4A4A"/>
<path d="M86.8861 13.8945C86.8861 13.927 86.8807 13.9594 86.87 13.9973C86.7783 14.3164 86.2283 14.5977 85.0852 14.9222C84.9289 14.9601 84.7887 14.9763 84.6647 14.9763C83.9152 14.9763 83.6024 14.403 83.5216 14.2191C83.5054 14.1866 83.5 14.165 83.5 14.165L83.6186 14.1271L83.6887 14.1055C83.6887 14.1109 83.6941 14.1163 83.6995 14.1325C83.7103 14.1541 83.7265 14.192 83.748 14.2353C83.8774 14.4733 84.2387 14.933 85.0421 14.7329C86.2283 14.3975 86.6004 14.1433 86.6758 13.9703C86.6866 13.9432 86.692 13.9216 86.692 13.8999L86.8861 13.8945Z" fill="#4A4A4A"/>
<path d="M90.4781 13.402C90.4619 13.467 90.4457 13.5319 90.4295 13.5968C90.4133 13.6022 90.3918 13.6076 90.3702 13.6076C90.3486 13.613 90.3271 13.6184 90.3055 13.6238C90.2839 13.6292 90.2624 13.6346 90.2408 13.64C90.1869 13.6508 90.1276 13.6671 90.0683 13.6779C89.6046 13.7753 88.9683 13.9159 88.6933 13.9537H88.6771C88.4669 13.9862 88.1002 14.0403 87.6257 14.0403C87.3993 14.0403 87.1512 14.0295 86.8816 13.9916C86.8169 13.9862 86.7468 13.9754 86.6821 13.9646C86.337 13.9105 85.965 13.8185 85.5714 13.6779L85.566 13.6725L85.1293 13.4778L85.0376 13.4399L84.6709 13.2776H84.6656H84.6602L84.6979 13.1857L84.7356 13.0938L85.6415 13.494C87.0434 14.0024 88.208 13.8239 88.6448 13.7536H88.661C88.9252 13.7103 89.5614 13.5751 90.0251 13.4778C90.0791 13.467 90.1222 13.4561 90.1653 13.4453C90.2678 13.4237 90.3433 13.4075 90.4026 13.3966C90.4241 13.3912 90.4511 13.3966 90.4781 13.402Z" fill="#4A4A4A"/>
<path d="M85.1817 7.70703C85.1817 7.70703 83.1435 9.02676 82.6744 9.28097C82.2053 9.53518 80.0593 10.5412 79.4608 10.6494C78.8677 10.7576 76.7487 11.0713 76.6247 11.5905C76.5007 12.1097 76.2796 12.7912 77.4712 13.0617C78.1452 13.1753 79.0295 13.0022 79.601 12.8561C80.1726 12.7101 83.1435 11.531 85.0576 11.7041L85.1817 7.70703Z" fill="white"/>
<path d="M85.1769 7.82094C85.1715 7.83175 85.1607 7.83716 85.15 7.84257C84.9289 7.98861 84.3034 8.38885 83.7373 8.74583C83.3059 9.01626 82.9015 9.26507 82.7182 9.36242C82.2707 9.60041 80.0977 10.6227 79.4777 10.7416C79.4183 10.7525 79.3429 10.7633 79.2566 10.7795C79.2027 10.7903 79.1434 10.8011 79.0787 10.812C79.0463 10.8174 79.014 10.8228 78.9816 10.8282C78.9492 10.8336 78.9169 10.839 78.8845 10.8444C78.5287 10.9093 78.0973 10.9959 77.7145 11.104C76.8734 11.3366 76.7439 11.5367 76.7224 11.607L76.7062 11.6719C76.6361 11.9532 76.5552 12.2777 76.7116 12.5265C76.8356 12.7267 77.089 12.8673 77.4934 12.9592C78.1782 13.0728 79.0894 12.8781 79.5747 12.7537C79.5801 12.7537 79.5909 12.7483 79.5963 12.7483C79.6232 12.7429 79.661 12.7321 79.6987 12.7158C79.7311 12.705 79.7634 12.6942 79.8012 12.6834C79.8874 12.6563 79.9953 12.6185 80.1085 12.5806C80.3943 12.4833 80.7555 12.3643 81.1653 12.2399C81.2193 12.2236 81.2786 12.2074 81.3325 12.1912C81.3648 12.1804 81.3972 12.1696 81.4295 12.1641C81.4619 12.1533 81.4942 12.1425 81.5266 12.1371C81.8231 12.0506 82.1359 11.964 82.4594 11.8883C82.4971 11.8775 82.5349 11.8721 82.5726 11.8613C82.6104 11.8504 82.6481 11.845 82.6859 11.8342C83.4677 11.6611 84.2819 11.5421 84.9666 11.5908C85.0152 11.5962 85.0529 11.6341 85.0529 11.6882C85.0529 11.6936 85.0529 11.6936 85.0529 11.699V11.7044C85.0475 11.7585 85.0044 11.7964 84.9505 11.7909C84.325 11.7477 83.5917 11.845 82.8746 11.9965C82.8314 12.0073 82.7937 12.0127 82.7506 12.0235C82.7128 12.0343 82.6697 12.0397 82.6319 12.0506C82.2869 12.1317 81.9418 12.2236 81.6236 12.3156C81.5913 12.3264 81.5589 12.3372 81.5266 12.3426C81.4942 12.3534 81.4619 12.3643 81.4295 12.3697C81.3163 12.4021 81.2031 12.44 81.0952 12.4724C81.0629 12.4833 81.0305 12.4941 80.9982 12.5049C80.9658 12.5157 80.9335 12.5265 80.9011 12.5373C80.6261 12.6239 80.3835 12.705 80.1786 12.7753C80.0869 12.8078 80.0007 12.8348 79.9252 12.8565C79.8874 12.8673 79.8551 12.8781 79.8227 12.8889C79.785 12.8997 79.7527 12.9105 79.7203 12.9214C79.6879 12.9322 79.6556 12.943 79.6286 12.9484C79.1595 13.0728 78.5395 13.1972 77.9679 13.1972C77.79 13.1972 77.6228 13.1864 77.4611 13.1594H77.4557C76.9974 13.0566 76.7008 12.8835 76.5498 12.6347C76.3503 12.3156 76.4474 11.9316 76.5229 11.6287L76.5391 11.5692C76.6415 11.1419 77.7037 10.8715 78.9061 10.6497C78.9439 10.6443 78.9762 10.6389 79.0139 10.6281C79.0517 10.6227 79.0841 10.6172 79.1218 10.6064C79.1595 10.601 79.2027 10.5902 79.2404 10.5848C79.3267 10.5686 79.4022 10.5578 79.4615 10.5469C80.0276 10.4442 82.1305 9.46519 82.6427 9.18934C82.8045 9.1028 83.155 8.88646 83.5432 8.64306C83.5917 8.61061 83.6456 8.57816 83.6941 8.54571C83.7427 8.51325 83.7912 8.48621 83.8397 8.45376C84.352 8.12923 84.8642 7.7993 85.0583 7.6749C85.1014 7.64786 85.1661 7.65867 85.1931 7.70194C85.2039 7.74521 85.2039 7.78848 85.1769 7.82094Z" fill="#4A4A4A"/>
<path d="M73.9088 10.6758L73.2617 11.314L73.8225 11.9901H74.3024L74.6151 11.7954L74.7175 11.7359L74.7337 11.5736L74.8146 10.7785L73.9088 10.6758ZM74.6097 11.6439V11.6602V11.6818L74.3401 11.8495L74.3185 11.7846L74.2215 11.46L74.669 11.0706L74.6528 11.2329L74.6097 11.6439ZM74.7014 10.8867L74.4479 11.1085L74.0813 10.811L74.7014 10.8867ZM73.9735 10.8759L74.0328 10.9246L74.3563 11.1842L74.1352 11.3789L74.0058 11.3681L73.9195 11.3627L73.9735 10.8759ZM73.8602 10.8813L73.8063 11.3519L73.844 11.3573L73.4181 11.3248L73.8602 10.8813ZM73.8764 11.8819L73.8225 11.817L73.6014 11.5412L73.5205 11.4438L74.1083 11.4871L74.2107 11.8224L74.2269 11.8765H73.8764V11.8819Z" fill="#4A4A4A"/>
<path d="M77.6394 12.7314C77.3859 12.7314 77.2242 12.6611 77.1217 12.5908C76.9762 12.4934 76.9115 12.3582 76.9007 12.2771C76.8737 12.1094 76.9061 11.9796 76.9384 11.8876C76.9869 11.747 77.0948 11.6388 77.2404 11.5956C77.4722 11.5253 77.8982 11.4333 78.0006 11.4117C78.2271 11.363 78.529 11.6497 78.5991 11.9796C78.6746 12.3257 78.4697 12.5854 78.0599 12.6773C77.8928 12.7152 77.758 12.7314 77.6394 12.7314ZM78.0438 11.5307C78.033 11.5307 78.0276 11.5307 78.0168 11.5307C77.8658 11.5631 77.4722 11.6497 77.2673 11.7146C77.1649 11.747 77.084 11.8281 77.0463 11.9255C77.0193 12.012 76.9923 12.1148 77.0139 12.2608C77.0193 12.3095 77.0624 12.4123 77.1864 12.4934C77.3158 12.58 77.5693 12.6665 78.0276 12.5637C78.4967 12.4556 78.5075 12.1743 78.4751 12.012C78.4158 11.747 78.1893 11.5307 78.0438 11.5307Z" fill="#4A4A4A"/>
<path d="M83.9749 13.9703C83.8617 13.9703 83.7539 13.9486 83.6622 13.8946C83.3441 13.7107 83.2416 13.4619 83.3872 13.2131C83.5436 12.9372 83.8994 12.8453 84.1744 13.0021C84.3631 13.1103 84.5788 13.2942 84.6166 13.4835C84.6327 13.5592 84.6166 13.6349 84.5734 13.6998C84.4494 13.8729 84.2014 13.9703 83.9749 13.9703ZM83.8833 13.0616C83.7323 13.0616 83.5813 13.1427 83.5004 13.2834C83.371 13.5105 83.5543 13.6782 83.7269 13.781C83.9372 13.9054 84.32 13.8242 84.4602 13.6241C84.4818 13.5917 84.4871 13.5592 84.4818 13.5159C84.4494 13.3807 84.2715 13.2185 84.1043 13.1211C84.0342 13.0832 83.9534 13.0616 83.8833 13.0616Z" fill="#4A4A4A"/>
<path d="M80.8263 13.9253C80.8209 13.9253 80.8101 13.9253 80.8047 13.9253L80.8155 13.8009C80.9287 13.8172 81.29 13.6819 81.4248 13.471C81.4841 13.3845 81.4895 13.2979 81.4409 13.206L81.5542 13.1465C81.6243 13.2763 81.6135 13.4115 81.5326 13.5413C81.3762 13.7793 80.9934 13.9253 80.8263 13.9253Z" fill="#4A4A4A"/>
<path d="M27.7327 41.1955C27.7813 41.3145 27.8298 41.4335 27.8783 41.5525C27.9268 41.4281 27.9754 41.3091 28.0239 41.1901C28.0724 41.0711 28.1317 40.9575 28.1857 40.8494L30.364 36.7604C30.391 36.7117 30.4179 36.6684 30.4503 36.636C30.4772 36.6035 30.5096 36.5819 30.5473 36.5711C30.5851 36.5602 30.6228 36.5494 30.6659 36.544C30.7091 36.5386 30.763 36.5386 30.8223 36.5386H31.8576V43.9161H30.6498V39.1456C30.6498 39.0591 30.6498 38.9617 30.6552 38.8535C30.6605 38.7508 30.6659 38.6426 30.6767 38.5344L28.4499 42.7208C28.4013 42.8181 28.3312 42.8885 28.2504 42.9425C28.1695 42.9966 28.0724 43.0237 27.9646 43.0237H27.7759C27.668 43.0237 27.571 42.9966 27.4901 42.9425C27.4092 42.8885 27.3445 42.8181 27.2906 42.7208L25.0368 38.5182C25.0529 38.6318 25.0583 38.74 25.0637 38.8481C25.0691 38.9563 25.0691 39.0537 25.0691 39.1456V43.9161H23.8613V36.5332H24.8966C24.9559 36.5332 25.0098 36.5332 25.0529 36.5386C25.0961 36.544 25.1392 36.5494 25.1716 36.5657C25.2039 36.5819 25.2417 36.6035 25.2686 36.6306C25.301 36.663 25.3279 36.7009 25.3549 36.755L27.5548 40.8548C27.6303 40.963 27.6842 41.0765 27.7327 41.1955Z" fill="white"/>
<path d="M37.4701 38.5938C37.799 38.5938 38.101 38.6478 38.3814 38.7506C38.6564 38.8588 38.8936 39.0102 39.0985 39.2103C39.298 39.4105 39.4544 39.6593 39.5676 39.9567C39.6808 40.2488 39.7347 40.5896 39.7347 40.9682C39.7347 41.0655 39.7294 41.1413 39.724 41.2062C39.7132 41.2711 39.7024 41.3197 39.6754 41.3522C39.6539 41.3901 39.6215 41.4117 39.5838 41.4279C39.546 41.4441 39.4975 41.4496 39.4436 41.4496H36.2138C36.2516 41.985 36.3971 42.3799 36.6452 42.6341C36.8986 42.8883 37.2275 43.0127 37.6427 43.0127C37.8476 43.0127 38.0201 42.991 38.1711 42.9424C38.3167 42.8937 38.4461 42.8396 38.5593 42.7855C38.6671 42.726 38.7642 42.6773 38.8505 42.6287C38.9314 42.58 39.0122 42.5583 39.0931 42.5583C39.1416 42.5583 39.1902 42.5692 39.2279 42.5908C39.2657 42.6124 39.298 42.6395 39.325 42.6773L39.6916 43.1371C39.5514 43.2993 39.3951 43.44 39.2225 43.5481C39.05 43.6563 38.8666 43.7483 38.6779 43.8132C38.4892 43.8781 38.2951 43.9268 38.101 43.9538C37.9069 43.9808 37.7182 43.9971 37.5348 43.9971C37.1736 43.9971 36.8339 43.9376 36.5212 43.8132C36.2084 43.6942 35.9388 43.5157 35.707 43.2777C35.4751 43.0397 35.2972 42.7477 35.1624 42.4015C35.0276 42.0553 34.9629 41.6497 34.9629 41.1899C34.9629 40.833 35.0222 40.4976 35.1354 40.1785C35.2487 39.8648 35.4158 39.589 35.6315 39.3564C35.8472 39.1238 36.1114 38.9399 36.4187 38.8047C36.7314 38.6641 37.0819 38.5938 37.4701 38.5938ZM37.4971 39.5024C37.1304 39.5024 36.8447 39.6052 36.6344 39.8161C36.4295 40.0217 36.2947 40.3191 36.2354 40.6977H38.5971C38.5971 40.5355 38.5755 40.3786 38.5323 40.238C38.4892 40.092 38.4191 39.9676 38.3275 39.8594C38.2358 39.7512 38.1226 39.6647 37.9824 39.5998C37.8422 39.5295 37.6804 39.5024 37.4971 39.5024Z" fill="white"/>
<path d="M44.9487 38.5938C45.2776 38.5938 45.5795 38.6478 45.8599 38.7506C46.1349 38.8588 46.3721 39.0102 46.577 39.2103C46.7765 39.4105 46.9329 39.6593 47.0461 39.9567C47.1593 40.2488 47.2133 40.5896 47.2133 40.9682C47.2133 41.0655 47.2079 41.1413 47.2025 41.2062C47.1917 41.2711 47.1809 41.3197 47.1539 41.3522C47.1324 41.3901 47.1 41.4117 47.0623 41.4279C47.0245 41.4441 46.976 41.4496 46.9221 41.4496H43.6923C43.7301 41.985 43.8757 42.3799 44.1237 42.6341C44.3771 42.8883 44.706 43.0127 45.1212 43.0127C45.3261 43.0127 45.4986 42.991 45.6496 42.9424C45.7952 42.8937 45.9246 42.8396 46.0378 42.7855C46.1457 42.726 46.2427 42.6773 46.329 42.6287C46.4099 42.58 46.4907 42.5583 46.5716 42.5583C46.6202 42.5583 46.6687 42.5692 46.7064 42.5908C46.7442 42.6124 46.7765 42.6395 46.8035 42.6773L47.1701 43.1371C47.0299 43.2993 46.8736 43.44 46.701 43.5481C46.5285 43.6563 46.3452 43.7483 46.1564 43.8132C45.9677 43.8781 45.7736 43.9268 45.5795 43.9538C45.3854 43.9808 45.1967 43.9971 45.0134 43.9971C44.6521 43.9971 44.3124 43.9376 43.9997 43.8132C43.6869 43.6942 43.4173 43.5157 43.1855 43.2777C42.9536 43.0397 42.7757 42.7477 42.6409 42.4015C42.5061 42.0553 42.4414 41.6497 42.4414 41.1899C42.4414 40.833 42.5007 40.4976 42.6139 40.1785C42.7272 39.8648 42.8943 39.589 43.11 39.3564C43.3257 39.1238 43.5899 38.9399 43.8972 38.8047C44.21 38.6641 44.5604 38.5938 44.9487 38.5938ZM44.9756 39.5024C44.609 39.5024 44.3232 39.6052 44.1129 39.8161C43.908 40.0217 43.7732 40.3191 43.7139 40.6977H46.0756C46.0756 40.5355 46.054 40.3786 46.0109 40.238C45.9677 40.092 45.8976 39.9676 45.806 39.8594C45.7143 39.7512 45.6011 39.6647 45.4609 39.5998C45.3261 39.5295 45.1589 39.5024 44.9756 39.5024Z" fill="white"/>
<path d="M51.9856 43.9978C51.5327 43.9978 51.1876 43.868 50.9396 43.6138C50.697 43.3542 50.5729 43.0026 50.5729 42.5483V39.6222H50.0445C49.9744 39.6222 49.9205 39.6005 49.8666 39.5573C49.8181 39.514 49.7911 39.4491 49.7911 39.3572V38.8541L50.6323 38.7189L50.8965 37.291C50.9126 37.2207 50.9396 37.172 50.9881 37.1342C51.0366 37.0963 51.1013 37.0801 51.1714 37.0801H51.8239V38.7297H53.1988V39.6276H51.8239V42.4672C51.8239 42.6294 51.867 42.7592 51.9479 42.8512C52.0288 42.9431 52.1366 42.9864 52.2714 42.9864C52.3469 42.9864 52.417 42.9756 52.4655 42.9594C52.514 42.9431 52.5626 42.9215 52.6057 42.8999C52.6434 42.8782 52.6812 42.862 52.7081 42.8404C52.7405 42.8241 52.7675 42.8133 52.7998 42.8133C52.8375 42.8133 52.8699 42.8241 52.8915 42.8404C52.913 42.8566 52.94 42.8891 52.967 42.9269L53.3444 43.5381C53.1611 43.6895 52.9508 43.8085 52.7135 43.8843C52.4871 43.96 52.239 43.9978 51.9856 43.9978Z" fill="white"/>
<path d="M62.9522 36.4531C63.2488 36.4531 63.5184 36.5018 63.7556 36.5938C63.9929 36.6857 64.1924 36.8101 64.3595 36.9615C64.5267 37.113 64.6615 37.2915 64.7585 37.4862C64.8556 37.6863 64.9095 37.8864 64.9311 38.0974L64.1331 38.265C64.1223 38.2705 64.1115 38.2705 64.1007 38.2705C64.0899 38.2705 64.0791 38.2705 64.0684 38.2705C64.009 38.2705 63.9605 38.2542 63.912 38.2218C63.8635 38.1893 63.8311 38.1406 63.8041 38.0703C63.7718 37.9838 63.7341 37.8973 63.6855 37.8161C63.637 37.735 63.5777 37.6647 63.513 37.6052C63.4429 37.5457 63.3674 37.497 63.2757 37.4646C63.1841 37.4267 63.0762 37.4105 62.9576 37.4105C62.8174 37.4105 62.688 37.4375 62.5748 37.4862C62.4616 37.5349 62.3699 37.5998 62.289 37.6863C62.2135 37.7674 62.1542 37.8648 62.1111 37.9784C62.0679 38.092 62.0518 38.2056 62.0518 38.33C62.0518 38.4327 62.0626 38.5301 62.0841 38.6274C62.1057 38.7248 62.1434 38.8167 62.1866 38.9141C62.2351 39.0115 62.2944 39.1088 62.3699 39.2062C62.4454 39.3089 62.5424 39.4171 62.6503 39.5307L64.6075 41.5698C64.7208 41.3534 64.807 41.1263 64.8771 40.8883C64.9472 40.6503 64.9904 40.4069 65.0119 40.1635C65.0173 40.0878 65.0443 40.0229 65.0874 39.9742C65.1306 39.9255 65.1953 39.9039 65.2708 39.9039H66.058C66.0526 40.3528 65.9879 40.7801 65.8639 41.1912C65.7399 41.6022 65.5565 41.9754 65.3247 42.3216L66.8668 43.9226H65.6374C65.5727 43.9226 65.5188 43.9172 65.4649 43.9118C65.4163 43.9064 65.3678 43.8901 65.3247 43.8739C65.2815 43.8577 65.2384 43.8306 65.1953 43.7982C65.1521 43.7657 65.1144 43.7279 65.0659 43.6792L64.559 43.1545C64.2355 43.4196 63.8689 43.6251 63.4698 43.7765C63.0708 43.928 62.6395 44.0037 62.1758 44.0037C61.89 44.0037 61.615 43.955 61.34 43.8577C61.0704 43.7603 60.8278 43.6197 60.6121 43.4358C60.3965 43.2519 60.2239 43.0301 60.0945 42.7705C59.9651 42.5109 59.9004 42.2188 59.9004 41.8889C59.9004 41.6617 59.9381 41.4454 60.0136 41.2398C60.0891 41.0343 60.1916 40.845 60.3264 40.6665C60.4612 40.488 60.6175 40.3312 60.7955 40.1851C60.9788 40.0445 61.1783 39.9201 61.394 39.8174C61.216 39.5631 61.0812 39.3143 61.0003 39.0709C60.9195 38.8276 60.8763 38.5842 60.8763 38.3408C60.8763 38.0866 60.9249 37.8432 61.0165 37.6106C61.1082 37.378 61.243 37.1833 61.4263 37.0102C61.6042 36.8426 61.8199 36.7073 62.0787 36.6046C62.3322 36.5018 62.6233 36.4531 62.9522 36.4531ZM61.1783 41.7861C61.1783 41.9754 61.2106 42.1431 61.2753 42.2891C61.34 42.4406 61.4263 42.565 61.5395 42.6678C61.6528 42.7705 61.7822 42.8516 61.9278 42.9057C62.0733 42.9598 62.2297 42.9923 62.3969 42.9923C62.6934 42.9923 62.9684 42.9436 63.2164 42.8517C63.4645 42.7597 63.6855 42.6299 63.8904 42.4622L61.9547 40.4718C61.6851 40.6503 61.4856 40.8504 61.3616 41.0722C61.243 41.2885 61.1783 41.5265 61.1783 41.7861Z" fill="white"/>
<path d="M77.0098 42.9053C77.3172 42.9053 77.5868 42.8782 77.8186 42.8187C78.0451 42.7647 78.2661 42.6835 78.471 42.5862V41.2448H77.549C77.4628 41.2448 77.3927 41.2178 77.3387 41.1691C77.2902 41.1204 77.2632 41.0609 77.2632 40.9852V40.2063H79.7112V43.1919C79.5225 43.3272 79.3284 43.4462 79.1289 43.5489C78.9294 43.6517 78.7137 43.7328 78.4818 43.7977C78.2554 43.8626 78.0073 43.9113 77.7485 43.9438C77.4843 43.9762 77.2039 43.9924 76.902 43.9924C76.3682 43.9924 75.8721 43.9005 75.4192 43.7112C74.9663 43.5219 74.5781 43.2623 74.2492 42.9323C73.9203 42.597 73.6614 42.2022 73.4781 41.737C73.2948 41.2719 73.2031 40.7688 73.2031 40.2226C73.2031 39.6655 73.2948 39.157 73.4727 38.6973C73.6507 38.2321 73.9095 37.8373 74.2384 37.502C74.5673 37.1666 74.9717 36.907 75.4408 36.7231C75.9099 36.5392 76.4437 36.4473 77.0314 36.4473C77.6299 36.4473 78.1529 36.5392 78.5897 36.7177C79.0318 36.8962 79.4038 37.1288 79.7058 37.4154L79.3068 38.0374C79.2313 38.1618 79.1235 38.2267 78.9941 38.2267C78.9132 38.2267 78.8269 38.1997 78.746 38.1456C78.6382 38.0807 78.525 38.0158 78.4117 37.9509C78.2985 37.886 78.1745 37.8319 78.0343 37.7832C77.8995 37.7345 77.7431 37.6967 77.5706 37.6642C77.398 37.6318 77.2039 37.6156 76.9775 37.6156C76.6162 37.6156 76.2873 37.675 75.9908 37.7994C75.6996 37.9238 75.4462 38.0969 75.2413 38.3241C75.0364 38.5513 74.8746 38.8271 74.7614 39.1462C74.6482 39.4653 74.5942 39.8223 74.5942 40.2171C74.5942 40.6444 74.6536 41.023 74.7722 41.353C74.8908 41.6829 75.058 41.9642 75.2736 42.1913C75.4893 42.4185 75.7427 42.5916 76.0393 42.716C76.3358 42.8458 76.6594 42.9053 77.0098 42.9053Z" fill="white"/>
<path d="M85.1127 38.5938C85.4416 38.5938 85.7436 38.6478 86.0239 38.7506C86.2989 38.8588 86.5362 39.0102 86.7411 39.2103C86.9406 39.4105 87.0969 39.6593 87.2102 39.9567C87.3234 40.2488 87.3773 40.5896 87.3773 40.9682C87.3773 41.0655 87.3719 41.1413 87.3665 41.2062C87.3558 41.2711 87.345 41.3197 87.318 41.3522C87.2964 41.3901 87.2641 41.4117 87.2264 41.4279C87.1886 41.4441 87.1401 41.4496 87.0862 41.4496H83.8564C83.8941 41.985 84.0397 42.3799 84.2878 42.6341C84.5412 42.8883 84.8701 43.0127 85.2853 43.0127C85.4902 43.0127 85.6627 42.991 85.8137 42.9424C85.9592 42.8937 86.0887 42.8396 86.2019 42.7855C86.3097 42.726 86.4068 42.6773 86.4931 42.6287C86.5739 42.58 86.6548 42.5583 86.7357 42.5583C86.7842 42.5583 86.8327 42.5692 86.8705 42.5908C86.9082 42.6124 86.9406 42.6395 86.9675 42.6773L87.3342 43.1371C87.194 43.2993 87.0376 43.44 86.8651 43.5481C86.6926 43.6563 86.5092 43.7483 86.3205 43.8132C86.1318 43.8781 85.9377 43.9268 85.7436 43.9538C85.5495 43.9808 85.3607 43.9971 85.1774 43.9971C84.8162 43.9971 84.4765 43.9376 84.1637 43.8132C83.851 43.6942 83.5814 43.5157 83.3496 43.2777C83.1177 43.0397 82.9398 42.7477 82.805 42.4015C82.6702 42.0553 82.6055 41.6497 82.6055 41.1899C82.6055 40.833 82.6648 40.4976 82.778 40.1785C82.8912 39.8648 83.0584 39.589 83.2741 39.3564C83.4897 39.1238 83.7539 38.9399 84.0613 38.8047C84.3686 38.6641 84.7191 38.5938 85.1127 38.5938ZM85.1343 39.5024C84.7676 39.5024 84.4819 39.6052 84.2716 39.8161C84.0667 40.0217 83.9319 40.3191 83.8726 40.6977H86.2342C86.2342 40.5355 86.2127 40.3786 86.1695 40.238C86.1264 40.092 86.0563 39.9676 85.9646 39.8594C85.873 39.7512 85.7597 39.6647 85.6196 39.5998C85.4848 39.5295 85.323 39.5024 85.1343 39.5024Z" fill="white"/>
<path d="M92.1496 43.9978C91.6967 43.9978 91.3516 43.868 91.1036 43.6138C90.8609 43.3542 90.7369 43.0026 90.7369 42.5483V39.6222H90.2085C90.1384 39.6222 90.0845 39.6005 90.0306 39.5573C89.982 39.514 89.9551 39.4491 89.9551 39.3572V38.8541L90.7962 38.7189L91.0604 37.291C91.0766 37.2207 91.1036 37.172 91.1521 37.1342C91.2006 37.0963 91.2653 37.0801 91.3354 37.0801H91.9878V38.7297H93.3628V39.6276H91.9878V42.4672C91.9878 42.6294 92.031 42.7592 92.1118 42.8512C92.1927 42.9431 92.3006 42.9864 92.4354 42.9864C92.5108 42.9864 92.5809 42.9756 92.6295 42.9594C92.6834 42.9431 92.7265 42.9215 92.7697 42.8999C92.8074 42.8782 92.8452 42.862 92.8721 42.8404C92.9045 42.8241 92.9314 42.8133 92.9638 42.8133C93.0015 42.8133 93.0339 42.8241 93.0554 42.8404C93.077 42.8566 93.104 42.8891 93.1309 42.9269L93.5084 43.5381C93.325 43.6895 93.1147 43.8085 92.8775 43.8843C92.6456 43.96 92.403 43.9978 92.1496 43.9978Z" fill="white"/>
<path d="M104.336 41.1955C104.385 41.3145 104.433 41.4335 104.482 41.5525C104.53 41.4281 104.579 41.3091 104.627 41.1901C104.676 41.0711 104.735 40.9575 104.789 40.8494L106.968 36.7604C106.994 36.7117 107.021 36.6684 107.054 36.636C107.081 36.6035 107.113 36.5819 107.151 36.5711C107.189 36.5602 107.226 36.5494 107.269 36.544C107.313 36.5386 107.367 36.5386 107.426 36.5386H108.461V43.9161H107.253V39.1456C107.253 39.0591 107.253 38.9617 107.259 38.8535C107.264 38.7508 107.269 38.6426 107.28 38.5344L105.053 42.7208C105.005 42.8181 104.935 42.8885 104.854 42.9425C104.773 42.9966 104.676 43.0237 104.568 43.0237H104.379C104.272 43.0237 104.174 42.9966 104.094 42.9425C104.013 42.8885 103.948 42.8181 103.894 42.7208L101.64 38.5182C101.656 38.6318 101.662 38.74 101.667 38.8481C101.673 38.9563 101.673 39.0537 101.673 39.1456V43.9161H100.465V36.5332H101.5C101.559 36.5332 101.613 36.5332 101.656 36.5386C101.7 36.544 101.743 36.5494 101.775 36.5657C101.813 36.5819 101.845 36.6035 101.872 36.6306C101.904 36.663 101.931 36.7009 101.958 36.755L104.158 40.8548C104.234 40.963 104.288 41.0765 104.336 41.1955Z" fill="white"/>
<path d="M116.01 43.917H115.444C115.325 43.917 115.234 43.9008 115.163 43.8629C115.093 43.825 115.045 43.7547 115.012 43.6466L114.899 43.2734C114.764 43.3923 114.635 43.4951 114.511 43.5871C114.382 43.679 114.252 43.7547 114.117 43.8142C113.983 43.8737 113.837 43.9224 113.686 43.9549C113.535 43.9873 113.363 43.9981 113.179 43.9981C112.958 43.9981 112.753 43.9657 112.57 43.9062C112.381 43.8467 112.225 43.7547 112.09 43.6357C111.955 43.5167 111.853 43.3653 111.777 43.1922C111.702 43.0137 111.664 42.8082 111.664 42.5702C111.664 42.3701 111.718 42.1754 111.82 41.9861C111.923 41.7914 112.095 41.6183 112.338 41.4614C112.581 41.3046 112.899 41.1748 113.298 41.072C113.697 40.9692 114.193 40.9206 114.791 40.9206V40.6177C114.791 40.2661 114.716 40.0011 114.57 39.8334C114.425 39.6657 114.209 39.5792 113.929 39.5792C113.724 39.5792 113.557 39.6008 113.422 39.6495C113.287 39.6982 113.168 39.7523 113.066 39.8118C112.964 39.8713 112.872 39.9254 112.786 39.974C112.699 40.0227 112.608 40.0443 112.505 40.0443C112.419 40.0443 112.349 40.0227 112.284 39.9794C112.225 39.9362 112.176 39.8821 112.139 39.8172L111.912 39.4115C112.511 38.8598 113.239 38.584 114.085 38.584C114.392 38.584 114.662 38.6327 114.905 38.7354C115.142 38.8382 115.347 38.9734 115.514 39.1519C115.681 39.3304 115.805 39.5467 115.891 39.7901C115.978 40.0389 116.021 40.3094 116.021 40.6069V43.917H116.01ZM113.567 43.1327C113.697 43.1327 113.815 43.1219 113.923 43.0949C114.031 43.0732 114.134 43.0354 114.231 42.9921C114.328 42.9434 114.419 42.8893 114.511 42.819C114.603 42.7487 114.694 42.6676 114.786 42.5756V41.6994C114.419 41.6994 114.112 41.7211 113.869 41.7697C113.621 41.8184 113.427 41.8725 113.276 41.9482C113.125 42.0185 113.023 42.1051 112.958 42.2024C112.893 42.2998 112.866 42.4025 112.866 42.5161C112.866 42.7379 112.931 42.9002 113.061 42.9921C113.185 43.084 113.357 43.1327 113.567 43.1327Z" fill="white"/>
<path d="M119.283 43.9161V38.675H120.022C120.151 38.675 120.243 38.6967 120.291 38.7453C120.34 38.794 120.378 38.8752 120.394 38.9887L120.469 39.6216C120.658 39.297 120.874 39.0428 121.127 38.8535C121.381 38.6642 121.661 38.5723 121.974 38.5723C122.233 38.5723 122.443 38.6318 122.615 38.7508L122.454 39.6973C122.443 39.7568 122.421 39.8 122.389 39.8271C122.357 39.8541 122.308 39.865 122.249 39.865C122.2 39.865 122.13 39.8541 122.038 39.8271C121.952 39.8055 121.834 39.7892 121.688 39.7892C121.424 39.7892 121.203 39.8595 121.014 40.0056C120.825 40.1516 120.669 40.3626 120.54 40.6438V43.9053H119.283V43.9161Z" fill="white"/>
<path d="M125.479 43.9161V38.675H126.217C126.347 38.675 126.438 38.6967 126.487 38.7453C126.535 38.794 126.573 38.8752 126.589 38.9887L126.665 39.6216C126.853 39.297 127.069 39.0428 127.323 38.8535C127.576 38.6642 127.856 38.5723 128.169 38.5723C128.428 38.5723 128.638 38.6318 128.811 38.7508L128.649 39.6973C128.638 39.7568 128.617 39.8 128.584 39.8271C128.552 39.8541 128.503 39.865 128.444 39.865C128.396 39.865 128.325 39.8541 128.234 39.8271C128.148 39.8055 128.029 39.7892 127.883 39.7892C127.619 39.7892 127.398 39.8595 127.209 40.0056C127.021 40.1516 126.864 40.3626 126.735 40.6438V43.9053H125.479V43.9161Z" fill="white"/>
<path d="M133.204 37.1512C133.204 37.2593 133.182 37.3621 133.139 37.4595C133.096 37.5568 133.036 37.6379 132.961 37.7083C132.885 37.7786 132.805 37.8381 132.702 37.8813C132.605 37.9246 132.497 37.9462 132.384 37.9462C132.276 37.9462 132.174 37.9246 132.077 37.8813C131.98 37.8381 131.893 37.784 131.823 37.7083C131.753 37.6379 131.694 37.5514 131.651 37.4595C131.608 37.3675 131.586 37.2647 131.586 37.1512C131.586 37.0376 131.608 36.9348 131.651 36.832C131.694 36.7347 131.748 36.6481 131.823 36.5778C131.893 36.5075 131.98 36.448 132.077 36.4047C132.174 36.3615 132.276 36.3398 132.384 36.3398C132.497 36.3398 132.6 36.3615 132.702 36.4047C132.799 36.448 132.885 36.5021 132.961 36.5778C133.036 36.6481 133.09 36.7347 133.139 36.832C133.177 36.9348 133.204 37.0376 133.204 37.1512ZM133.015 38.6818V43.9229H131.758V38.6818H133.015Z" fill="white"/>
<path d="M138.628 38.5938C138.957 38.5938 139.259 38.6478 139.54 38.7506C139.815 38.8588 140.052 39.0102 140.257 39.2103C140.456 39.4105 140.613 39.6593 140.726 39.9567C140.839 40.2488 140.893 40.5896 140.893 40.9682C140.893 41.0655 140.888 41.1413 140.882 41.2062C140.871 41.2711 140.861 41.3197 140.834 41.3522C140.812 41.3901 140.78 41.4117 140.742 41.4279C140.704 41.4441 140.656 41.4496 140.602 41.4496H137.372C137.41 41.985 137.555 42.3799 137.803 42.6341C138.057 42.8883 138.386 43.0127 138.801 43.0127C139.006 43.0127 139.178 42.991 139.329 42.9424C139.475 42.8937 139.604 42.8396 139.718 42.7855C139.825 42.726 139.922 42.6773 140.009 42.6287C140.09 42.58 140.17 42.5583 140.251 42.5583C140.3 42.5583 140.348 42.5692 140.386 42.5908C140.424 42.6124 140.456 42.6395 140.483 42.6773L140.85 43.1371C140.71 43.2993 140.553 43.44 140.381 43.5481C140.208 43.6563 140.025 43.7483 139.836 43.8132C139.647 43.8781 139.453 43.9268 139.259 43.9538C139.065 43.9808 138.876 43.9971 138.693 43.9971C138.332 43.9971 137.992 43.9376 137.679 43.8132C137.367 43.6888 137.097 43.5157 136.865 43.2777C136.633 43.0397 136.455 42.7477 136.321 42.4015C136.186 42.0553 136.121 41.6497 136.121 41.1899C136.121 40.833 136.18 40.4976 136.294 40.1785C136.407 39.8648 136.574 39.589 136.79 39.3564C137.005 39.1238 137.27 38.9399 137.577 38.8047C137.89 38.6641 138.24 38.5938 138.628 38.5938ZM138.655 39.5024C138.289 39.5024 138.003 39.6052 137.793 39.8161C137.588 40.0217 137.453 40.3191 137.394 40.6977H139.755C139.755 40.5355 139.734 40.3786 139.691 40.238C139.647 40.092 139.577 39.9676 139.486 39.8594C139.394 39.7512 139.281 39.6647 139.141 39.5998C139.006 39.5295 138.839 39.5024 138.655 39.5024Z" fill="white"/>
<path d="M147.623 43.9166C147.461 43.9166 147.353 43.8408 147.305 43.6894L147.202 43.181C147.095 43.3054 146.981 43.4136 146.863 43.5109C146.744 43.6083 146.615 43.6948 146.48 43.7651C146.345 43.8354 146.194 43.8895 146.038 43.9328C145.881 43.9707 145.709 43.9923 145.526 43.9923C145.24 43.9923 144.981 43.9328 144.744 43.8138C144.506 43.6948 144.302 43.5217 144.129 43.2946C143.956 43.0674 143.827 42.7861 143.73 42.4562C143.638 42.1209 143.59 41.7423 143.59 41.315C143.59 40.9255 143.644 40.5686 143.746 40.2332C143.854 39.8979 144.005 39.6112 144.199 39.3624C144.393 39.119 144.63 38.9243 144.905 38.7891C145.18 38.6485 145.488 38.5836 145.833 38.5836C146.124 38.5836 146.372 38.6322 146.582 38.7242C146.787 38.8161 146.976 38.9405 147.138 39.0974V36.3281H148.394V43.9166H147.623ZM145.952 42.9917C146.21 42.9917 146.437 42.9376 146.62 42.8294C146.803 42.7212 146.976 42.5644 147.138 42.3643V40.0169C146.998 39.8438 146.841 39.7194 146.674 39.6491C146.507 39.5788 146.324 39.5409 146.129 39.5409C145.941 39.5409 145.768 39.5788 145.612 39.6491C145.455 39.7194 145.326 39.8276 145.218 39.9736C145.11 40.1196 145.029 40.3035 144.97 40.5253C144.911 40.7471 144.884 41.0121 144.884 41.315C144.884 41.6233 144.911 41.8829 144.959 42.0938C145.008 42.3048 145.078 42.4779 145.17 42.6131C145.261 42.7483 145.375 42.8456 145.504 42.9051C145.639 42.9646 145.79 42.9917 145.952 42.9917Z" fill="white"/>
<path d="M19.1965 41.8819L1.57031 40.6433L19.1965 39.4102V41.8819Z" fill="#EE2D42"/>
<path d="M154.438 39.4102L172.058 40.6433L154.438 41.8819V39.4102Z" fill="#EE2D42"/>
</g>
<defs>
<clipPath id="clip0_2_5651">
<rect width="173" height="44" fill="white"/>
</clipPath>
</defs>
</svg>
