<svg width="24" height="24" viewBox="0 0 24 24" fill="none" xmlns="http://www.w3.org/2000/svg">
<path d="M5.31328 12.9172L4.56806 12.8326L4.56806 12.8326L5.31328 12.9172ZM5.76046 8.97714L6.50568 9.06172L5.76046 8.97714ZM4.44779 14.8741L3.87668 14.3879H3.87668L4.44779 14.8741ZM19.4319 12.8326C19.3852 12.4211 19.0137 12.1253 18.6021 12.172C18.1906 12.2187 17.8948 12.5902 17.9415 13.0018L19.4319 12.8326ZM19.5522 14.8741L18.9811 15.3602L19.5522 14.8741ZM9.73005 4.37561L9.973 5.08518C10.2763 4.98133 10.4801 4.6962 10.4801 4.37561H9.73005ZM13.1539 3.28255C13.4237 3.59682 13.8973 3.63285 14.2115 3.36303C14.5258 3.0932 14.5618 2.6197 14.292 2.30542L13.1539 3.28255ZM15.7023 20.2652C15.8477 19.8773 15.6511 19.445 15.2632 19.2997C14.8753 19.1543 14.4431 19.3509 14.2977 19.7387L15.7023 20.2652ZM9.7023 19.7387C9.55694 19.3509 9.12467 19.1543 8.7368 19.2997C8.34893 19.445 8.15234 19.8773 8.2977 20.2652L9.7023 19.7387ZM17.7772 17.252H6.22281V18.752H17.7772V17.252ZM6.05849 13.0018L6.50568 9.06172L5.01525 8.89256L4.56806 12.8326L6.05849 13.0018ZM5.01889 15.3602C5.59621 14.682 5.96028 13.8671 6.05849 13.0018L4.56806 12.8326C4.50519 13.3866 4.27067 13.9251 3.87668 14.3879L5.01889 15.3602ZM17.9415 13.0018C18.0397 13.8671 18.4038 14.682 18.9811 15.3602L20.1233 14.3879C19.7293 13.9251 19.4948 13.3866 19.4319 12.8326L17.9415 13.0018ZM6.22281 17.252C5.56777 17.252 5.10443 16.928 4.89056 16.5511C4.68409 16.1873 4.68714 15.75 5.01889 15.3602L3.87668 14.3879C3.11141 15.287 3.08777 16.4135 3.58598 17.2915C4.07679 18.1563 5.04947 18.752 6.22281 18.752V17.252ZM17.7772 18.752C18.9505 18.752 19.9232 18.1563 20.414 17.2915C20.9122 16.4135 20.8886 15.287 20.1233 14.3879L18.9811 15.3602C19.3129 15.75 19.3159 16.1873 19.1094 16.5511C18.8956 16.928 18.4322 17.252 17.7772 17.252V18.752ZM10.4801 4.37561V4.2719H8.98005V4.37561H10.4801ZM6.50568 9.06172C6.7087 7.27296 8.05587 5.74158 9.973 5.08518L9.48711 3.66605C7.11944 4.47671 5.29449 6.43221 5.01525 8.89256L6.50568 9.06172ZM12 1.25195C10.3321 1.25195 8.98005 2.60403 8.98005 4.2719H10.4801C10.4801 3.43246 11.1606 2.75195 12 2.75195V1.25195ZM12 2.75195C12.4613 2.75195 12.874 2.95654 13.1539 3.28255L14.292 2.30542C13.7393 1.66167 12.9171 1.25195 12 1.25195V2.75195ZM14.2977 19.7387C13.975 20.5998 13.0846 21.252 12 21.252V22.752C13.6855 22.752 15.1516 21.7344 15.7023 20.2652L14.2977 19.7387ZM12 21.252C10.9154 21.252 10.025 20.5998 9.7023 19.7387L8.2977 20.2652C8.84835 21.7344 10.3145 22.752 12 22.752V21.252Z" fill="black" fill-opacity="0.7"/>
<path d="M21 7C21 8.65685 19.6569 10 18 10C16.3431 10 15 8.65685 15 7C15 5.34315 16.3431 4 18 4C19.6569 4 21 5.34315 21 7Z" fill="#0BC908" stroke="#0BC908" stroke-width="1.5" stroke-linecap="round"/>
</svg>
