<svg width="40" height="48" viewBox="0 0 40 48" fill="none" xmlns="http://www.w3.org/2000/svg">
<g id="Group 1171282283">
<path id="Vector" fill-rule="evenodd" clip-rule="evenodd" d="M30.8132 22.9697C30.568 22.595 29.4872 19.5836 29.4872 19.0791C29.4872 18.5605 28.3926 16.8745 28.0176 16.3559C27.6576 15.8372 27.139 14.1512 26.9945 13.5605C26.8506 12.9842 25.5249 10.5491 25.3809 9.95834C25.2225 9.38206 24.8625 8.34448 24.2715 7.6098C23.681 6.87484 22.7587 5.5636 22.6579 4.90074C22.5427 4.22368 21.7069 2.76823 21.2604 2.24958C21.102 2.06222 20.5973 1.03913 20.0934 0.434169C19.6752 -0.07028 19.2718 -0.286316 18.9837 0.63573C18.609 1.80276 18.1048 2.53772 17.7301 3.20058C17.3698 3.86344 15.9002 6.06805 15.6697 6.73063C15.4534 7.39349 13.8398 10.9238 13.3932 11.8027C12.9609 12.6816 10.0934 19.3675 9.94948 20.4051C9.7908 21.4282 8.84008 23.9209 8.17722 24.8143C7.51437 25.6935 6.49127 26.1258 5.90078 26.5003C5.31003 26.8605 3.26383 28.1862 2.60097 28.7049C1.93812 29.2233 0.338739 29.9153 0.0937517 30.3185C-0.13676 30.7221 0.0937516 31.9036 0.396366 32.4078C0.684506 32.9265 1.99575 34.209 1.93812 35.0158C1.83734 35.3619 1.37631 35.7795 1.6355 36.0244L2.22626 36.6441L2.29836 38.9209L1.26106 38.9495L0.108227 39.5979C0.108227 39.8861 -0.0933344 40.1887 0.065074 40.4913C0.266908 40.8515 1.21791 41.4423 2.08232 41.6296C2.58677 41.7304 3.16305 41.7017 4.01299 41.6441C4.01299 41.6441 4.04167 41.8749 4.0993 42.2204C4.15693 42.6527 4.24351 43.258 4.33008 43.7332C4.47402 44.5834 4.73348 45.2752 5.02162 45.9668C5.30976 46.673 6.04472 47.2204 6.56337 47.3646C7.08202 47.5085 8.06197 47.5085 8.65272 47.1483C9.229 46.7738 12.1686 45.0302 13.033 44.7276C13.8832 44.4108 15.7418 43.474 18.249 43.4019C20.7562 43.3298 23.0185 43.258 25.151 44.7276C27.2837 46.1975 28.6958 47.7535 29.9349 47.9553C31.1595 48.1569 32.4132 47.6382 32.9173 47.1627C33.4076 46.6875 33.7533 45.7076 34.0988 44.3677C34.3004 43.3877 34.142 42.0478 34.9491 42.3501C35.309 42.4799 35.8282 42.4654 36.3179 42.3646C37.2402 42.1772 38.6378 41.2552 38.9691 40.9671C39.3009 40.6934 39.704 40.1026 39.488 39.8C39.2575 39.4977 37.9176 39.3966 37.9176 39.3966C37.9463 38.2149 37.6578 37.7249 36.909 36.8605L37.1395 34.584L39.1857 32.1634C39.1857 32.1634 39.488 30.9816 38.8252 30.2466C38.1626 29.5119 33.4652 25.6211 33.4652 25.6211C33.4652 25.6211 33.4652 25.1746 32.8021 24.6559C32.1387 24.1515 31.0579 23.3447 30.8132 22.9697Z" fill="black"/>
<path id="Vector_2" fill-rule="evenodd" clip-rule="evenodd" d="M33.1622 26.8027C33.7095 26.9038 37.9027 29.7855 37.7437 31.313C37.5998 32.8548 36.2596 33.7336 36.2596 33.7336C36.2596 33.7336 35.3662 33.5608 35.1357 33.9352C34.9197 34.3099 35.006 34.9007 34.7758 34.9873C34.531 35.0736 33.9111 34.9152 33.9111 34.9152C33.9111 34.9152 32.5422 31.2264 32.4846 30.0594C32.4417 28.8921 32.6722 27.3359 33.1622 26.8027Z" fill="white"/>
<path id="Vector_3" fill-rule="evenodd" clip-rule="evenodd" d="M25.7968 21.6583C25.8399 24.151 22.6414 26.4422 19.7598 26.4422C16.8781 26.4422 13.823 24.5544 13.8662 21.3698C13.9093 18.1853 16.7334 17.1338 19.774 17.1338C22.7998 17.148 25.7391 19.151 25.7968 21.6583Z" fill="#8C5E57"/>
<path id="Vector_4" fill-rule="evenodd" clip-rule="evenodd" d="M3.19281 34.0779L1.42054 31.6717C1.42054 31.6717 0.916094 30.9223 1.44922 30.6197C1.99682 30.3026 5.54135 27.7522 5.54135 27.7522C5.54135 27.7522 6.00237 27.4209 6.44892 27.853C6.89574 28.2853 6.82364 28.7463 6.73706 29.3374C6.65075 29.9281 5.33924 34.6976 5.33924 34.6976H4.95032L4.08563 33.876L3.19281 34.0779ZM10.9595 21.3692C10.9595 21.3692 8.85563 27.2912 8.42329 28.7179C8.00542 30.1586 6.65102 34.5968 6.27631 36.5275C5.90159 38.4584 5.42609 42.3345 5.6424 43.6168C5.84396 44.9138 6.00237 46.153 6.85286 46.3403C7.7028 46.5419 8.7117 45.6919 9.72032 45.202C10.7145 44.6975 13.337 43.2568 14.6627 42.839C15.9884 42.4066 17.8901 41.9601 20.2534 42.0898C22.6164 42.2337 25.4694 43.5881 26.7517 44.3952C27.8469 45.0867 31.1467 48.487 32.5729 45.548C33.005 44.6546 33.2647 41.7151 33.1353 39.1071C33.0195 36.4988 31.2906 29.2655 30.7002 26.7152C30.1236 24.1648 28.7692 21.2686 28.7692 21.2686L26.8093 21.24C26.7948 21.24 26.7085 23.4014 25.7717 24.5398C24.8213 25.6926 22.919 27.3641 19.8642 27.3349C16.7952 27.3062 15.0805 25.9228 14.2303 25.0005C13.3656 24.093 12.8473 22.3207 12.948 21.211C12.9478 21.1963 11.2763 21.3405 10.9595 21.3692Z" fill="white"/>
<path id="Vector_5" fill-rule="evenodd" clip-rule="evenodd" d="M17.4145 20.823C18.3945 20.1891 18.8989 19.2092 18.5097 18.6184C18.135 18.0421 17.0401 18.0853 16.0459 18.7192C15.0662 19.3531 14.5618 20.3472 14.9365 20.9238C15.311 21.5146 16.4204 21.4714 17.4145 20.823Z" fill="#A08591"/>
<path id="Vector_6" fill-rule="evenodd" clip-rule="evenodd" d="M17.282 20.6352C18.089 20.1165 18.5066 19.3095 18.1898 18.8195C17.8872 18.344 16.9793 18.3871 16.1723 18.9061C15.351 19.4247 14.9476 20.2463 15.2502 20.7215C15.5673 21.197 16.4752 21.1683 17.282 20.6352Z" fill="white"/>
<path id="Vector_7" fill-rule="evenodd" clip-rule="evenodd" d="M18.4083 24.6848C18.8983 26.6875 21.9384 25.6358 23.192 24.8721C24.4456 24.094 24.6909 22.2065 24.2727 21.5436C23.3217 20.0306 21.7944 21.8894 20.9298 22.437C20.0653 22.9988 18.0481 23.2438 18.4083 24.6848Z" fill="#795F50"/>
<path id="Vector_8" fill-rule="evenodd" clip-rule="evenodd" d="M35.376 45.4056V43.7921H34.9873V43.0137H36.457V43.7921H36.0681V45.4056H35.376ZM38.4598 45.4056L38.3735 44.4549C38.359 44.3828 38.359 44.311 38.359 44.2386C38.3445 44.1665 38.3445 44.0947 38.3445 44.0226L38.3013 44.2386C38.2869 44.311 38.2727 44.3973 38.2582 44.4836L38.0277 45.4056H37.6095L37.3935 44.4836C37.3648 44.3973 37.3504 44.3107 37.3359 44.2386C37.3192 44.1677 37.3096 44.0954 37.3072 44.0226C37.3072 44.0947 37.2927 44.1665 37.2927 44.2386C37.2927 44.311 37.2782 44.3828 37.2782 44.4549L37.1919 45.4056H36.5146L36.832 43.0137H37.5522L37.6961 43.6044C37.6961 43.6189 37.7106 43.6476 37.7106 43.691C37.7682 43.9357 37.8114 44.1376 37.8258 44.2962H37.8403C37.8403 44.1952 37.8548 44.0944 37.8835 43.9791C37.8985 43.8639 37.9272 43.7342 37.9698 43.59L38.1143 43.0137H38.8345L39.1374 45.4056H38.4598Z" fill="black"/>
<path id="Vector_9" fill-rule="evenodd" clip-rule="evenodd" d="M27.8258 21.2845L26.8027 21.27C26.7882 21.27 26.7019 23.4315 25.7651 24.5698C24.8146 25.7082 22.9124 27.3797 19.8576 27.3652C18.46 27.3507 17.3503 27.0481 16.4717 26.6589C17.7253 27.466 19.2671 27.898 20.7799 27.898C24.2094 27.898 28.0131 25.1748 27.9555 22.2065C27.9416 21.8958 27.8981 21.587 27.8258 21.2845Z" fill="#BBBCBF"/>
</g>
</svg>
